<svg width="40" height="40" viewBox="0 0 40 40" fill="none" xmlns="http://www.w3.org/2000/svg">
<g clip-path="url(#clip0)">
<path d="M27.9693 15.046C27.3793 15.3053 26.7493 15.482 26.086 15.5626C26.762 15.1553 27.282 14.5133 27.528 13.7473C26.894 14.1173 26.1913 14.3866 25.4433 14.5366C24.846 13.8973 23.9947 13.4973 23.0493 13.4973C21.238 13.4973 19.7693 14.966 19.7693 16.7753C19.7693 17.0353 19.7993 17.2853 19.854 17.5246C17.1273 17.396 14.7107 16.0866 13.0933 14.1073C12.8087 14.5886 12.6493 15.148 12.6493 15.7573C12.6493 16.8973 13.2293 17.8993 14.108 18.488C13.57 18.4706 13.064 18.3226 12.6227 18.0773V18.118C12.6227 19.708 13.7513 21.034 15.2533 21.336C14.978 21.41 14.6873 21.45 14.3893 21.45C14.18 21.45 13.9793 21.43 13.7787 21.3926C14.1993 22.6946 15.4087 23.644 16.848 23.6706C15.728 24.55 14.3087 25.074 12.78 25.074C12.52 25.074 12.2607 25.0586 12 25.0293C13.4593 25.9586 15.1787 26.502 17.038 26.502C23.074 26.502 26.3707 21.5046 26.3707 17.178C26.3707 17.0386 26.3707 16.898 26.3607 16.758C27.0013 16.2986 27.5607 15.718 28.0007 15.0593L27.9693 15.046Z" fill="white"/>
</g>
<circle cx="20" cy="20" r="19" stroke="white" stroke-width="2"/>
<defs>
<clipPath id="clip0">
<rect width="16" height="16" fill="white" transform="translate(12 12)"/>
</clipPath>
</defs>
</svg>
