<?xml version="1.0" encoding="UTF-8"?>
<svg width="204px" height="40px" viewBox="0 0 204 40" version="1.1" xmlns="http://www.w3.org/2000/svg" xmlns:xlink="http://www.w3.org/1999/xlink">
    <title>style / logo / sainsburys</title>
    <g id="Page-1" stroke="none" stroke-width="1" fill="none" fill-rule="evenodd">
        <g id="style-/-logo-/-sainsburys" fill="#FFFFFF">
            <g>
                <path d="M191.374986,13.8633803 C191.374986,17.7207042 203.818986,15.9680282 203.818986,23.6740563 C203.818986,32.6486197 193.860338,32.5954648 188.452901,30.1546479 C187.866761,29.8673239 187.727408,29.4291549 187.727408,28.8889859 L187.727408,26.9912113 C187.727408,26.3073803 188.014732,26.1076901 188.497437,26.1076901 C188.842225,26.1076901 189.136732,26.2614085 189.428366,26.5070704 C193.60893,29.7265352 199.420056,29.3731268 199.420056,26.0200563 C199.420056,21.8150704 187.134085,23.4240845 187.134085,15.6692113 C187.134085,8.79929577 195.621634,7.37847887 201.95569,10.0161127 C202.551887,10.2474085 202.699859,10.7416056 202.699859,11.2817746 L202.699859,12.8850423 C202.699859,13.5760563 202.403915,13.7685634 201.911155,13.7685634 C201.66262,13.7685634 201.280479,13.5760563 200.981662,13.3792394 C197.474873,10.9872676 191.374986,10.6927606 191.374986,13.8633803 Z" id="Clip-5"></path>
                <path d="M186.917155,1.03005634 C191.173859,1.03005634 188.577887,9.66557746 186.274986,9.66557746 L185.250676,9.66557746 C184.895831,9.66557746 184.654479,9.4716338 184.654479,9.23028169 C184.654479,8.59385915 185.443183,7.85112676 185.443183,5.79676056 C185.443183,3.77543662 183.970648,2.31008451 183.970648,1.71532394 C183.970648,1.42225352 184.068338,1.03005634 184.601324,1.03005634 L186.917155,1.03005634 Z" id="Clip-2"></path>
                <path d="M173.073887,33.2563099 C171.852761,36.4125634 168.344535,39.054507 164.582028,39.054507 C163.944169,39.054507 163.372394,39.054507 162.530535,38.801662 C161.902732,38.658 161.56369,38.2758592 161.56369,37.7845352 L161.56369,35.0061127 C161.56369,34.6627606 161.86107,34.3265915 162.198676,34.3265915 C162.733099,34.3265915 163.122423,34.4702535 163.708563,34.6210986 C167.560141,35.6971268 170.976423,34.4702535 171.076986,30.8571549 L162.198676,10.3221127 C162.000423,9.83509859 161.948704,9.69287324 161.948704,9.54777465 C161.948704,9.25614085 162.095239,9.10816901 162.386873,9.10816901 L167.718169,9.10816901 C168.149155,9.10816901 168.344535,9.25614085 168.492507,9.64546479 L173.458901,22.8149577 L173.753408,23.7372676 L174.045042,22.8149577 L178.874958,9.64546479 C178.975521,9.30498592 179.21831,9.10816901 179.565972,9.10816901 L181.799915,9.10816901 C182.042704,9.10816901 182.245268,9.30498592 182.245268,9.54777465 C182.245268,9.73884507 182.143268,9.8796338 182.042704,10.1784507 L173.073887,33.2563099 Z" id="Clip-44"></path>
                <path d="M159.469099,8.95732394 C160.099775,9.10673239 160.440254,9.50323944 160.440254,9.98450704 L160.440254,13.0646197 C160.440254,13.3936056 160.14862,13.7441408 159.798085,13.7441408 C159.272282,13.7441408 158.773775,13.5415775 158.148845,13.3936056 C155.502592,12.8606197 151.517408,13.0071549 151.517408,17.2063944 L151.517408,30.3687042 C151.517408,30.713493 151.264563,30.9591549 150.935577,30.9591549 L146.243577,30.9591549 C145.999352,30.9591549 145.758,30.713493 145.758,30.3687042 L145.758,9.69287324 C145.758,9.34664789 145.999352,9.10673239 146.243577,9.10673239 L150.787606,9.10673239 C151.120901,9.10673239 151.369437,9.34664789 151.369437,9.69287324 L151.468563,12.3204507 C152.40093,10.9599718 154.597521,8.71453521 157.306986,8.71453521 C157.941972,8.71453521 158.535296,8.71453521 159.469099,8.95732394 Z" id="Clip-17"></path>
                <path d="M140.978366,9.10816901 C141.307352,9.10816901 141.560197,9.34808451 141.560197,9.69430986 L141.560197,23.346507 C141.560197,29.3932394 136.68862,31.446169 131.806986,31.446169 C126.972761,31.446169 122.096873,29.3932394 122.096873,23.9340845 L122.096873,9.69430986 C122.096873,9.34808451 122.339662,9.10816901 122.586761,9.10816901 L127.271577,9.10816901 C127.607746,9.10816901 127.853408,9.34808451 127.853408,9.69430986 L127.853408,25.0546479 C127.853408,27.3561127 129.320197,28.7625634 131.806986,28.7625634 C134.841127,28.7625634 135.807972,27.0587324 135.807972,23.8852394 L135.807972,9.69430986 C135.807972,9.34808451 136.056507,9.10816901 136.302169,9.10816901 L140.978366,9.10816901 Z" id="Clip-23"></path>
                <path d="M110.98462,8.84383099 C116.009915,8.84383099 119.177662,13.2355775 119.177662,19.0811831 C119.177662,26.6018873 113.958423,31.5725915 107.515183,31.5725915 C103.996901,31.5725915 101.422479,30.3471549 99.7186479,29.0383944 C98.9888451,28.5025352 98.838,27.5802254 98.838,26.7972676 L98.838,1.62050704 C98.838,1.28146479 99.0793521,1.04011268 99.3221408,1.04011268 L103.996901,1.04011268 C104.338817,1.04011268 104.587352,1.28146479 104.587352,1.62050704 L104.587352,11.3277465 C105.512535,10.5534085 107.658845,8.84383099 110.98462,8.84383099 Z M107.900197,28.9407042 C111.021972,28.9407042 113.231493,25.7269859 113.231493,20.2549014 C113.231493,18.2120282 112.778958,12.4540563 108.346986,12.4540563 C106.58569,12.4540563 105.312845,13.4280845 104.587352,13.962507 L104.587352,27.1420563 C104.587352,27.5802254 104.677859,28.0097746 105.271183,28.4048451 C105.755324,28.6907324 106.489437,28.9407042 107.900197,28.9407042 Z" id="Clip-32"></path>
                <path d="M83.7635493,13.8633803 C83.7635493,17.7207042 96.197493,15.9680282 96.197493,23.6740563 C96.197493,32.6486197 86.2402817,32.5954648 80.8414648,30.1546479 C80.2423944,29.8673239 80.0987324,29.4291549 80.0987324,28.8889859 L80.0987324,26.9912113 C80.0987324,26.3073803 80.4004225,26.1076901 80.8845634,26.1076901 C81.2207324,26.1076901 81.5181127,26.2614085 81.8097465,26.5070704 C86.0075493,29.7265352 91.8057465,29.3731268 91.8057465,26.0200563 C91.8057465,21.8150704 79.5226479,23.4240845 79.5226479,15.6692113 C79.5226479,8.79929577 88.0001408,7.37847887 94.3485634,10.0161127 C94.9303944,10.2474085 95.075493,10.7416056 95.075493,11.2817746 L95.075493,12.8850423 C95.075493,13.5760563 94.7867324,13.7685634 94.3025915,13.7685634 C94.0569296,13.7685634 93.6575493,13.5760563 93.3730986,13.3792394 C89.8548169,10.9872676 83.7635493,10.6927606 83.7635493,13.8633803 Z" id="Clip-41"></path>
                <path d="M69.6846761,8.59960563 C74.388169,8.59960563 76.4956901,11.3392394 76.4956901,15.3028732 L76.4956901,30.4304789 C76.4956901,30.7767042 76.2471549,31.0223662 75.9066761,31.0223662 L71.2031831,31.0223662 C70.9647042,31.0223662 70.7233521,30.7767042 70.7233521,30.4304789 L70.7233521,15.7970704 C70.7233521,14.1320282 70.5265352,12.168169 67.2855211,12.168169 C65.6233521,12.168169 63.6695493,13.1421972 62.7371831,13.6924225 L62.7371831,30.4304789 C62.7371831,30.7767042 62.4915211,31.0223662 62.1409859,31.0223662 L57.4475493,31.0223662 C57.2018873,31.0223662 56.9562254,30.7767042 56.9562254,30.4304789 L56.9562254,9.67707042 C56.9562254,9.33228169 57.2018873,9.08087324 57.4475493,9.08087324 L62.0001972,9.08087324 C62.3507324,9.08087324 62.5892113,9.33228169 62.5892113,9.67707042 L62.6912113,10.7990704 C64.1536901,9.91267606 66.9953239,8.59960563 69.6846761,8.59960563 Z" id="Clip-14"></path>
                <path d="M51.5689014,9.16850704 C51.9050704,9.16850704 52.1478592,9.41273239 52.1478592,9.74746479 L52.1478592,30.4290423 C52.1478592,30.7752676 51.9050704,31.019493 51.5689014,31.019493 L46.8855211,31.019493 C46.6412958,31.019493 46.3956338,30.7752676 46.3956338,30.4290423 L46.3956338,9.74746479 C46.3956338,9.41273239 46.6412958,9.16850704 46.8855211,9.16850704 L51.5689014,9.16850704 Z M49.1869859,0.820309859 C51.2284225,0.823183099 52.2527324,2.09315493 52.2527324,3.5556338 C52.2527324,5.31261972 51.0790141,6.48346479 49.1769296,6.48346479 C47.2690986,6.48346479 46.0063099,5.31261972 46.0063099,3.5556338 C46.0063099,2.09315493 47.0306197,0.823183099 49.1668732,0.820309859 L49.1869859,0.820309859 Z" id="Combined-style-/-shape"></path>
                <path d="M33.221831,8.55794366 C40.1061127,8.55794366 42.2035775,11.2903944 42.2035775,15.2425352 L42.2035775,30.4161127 C42.2035775,30.7551549 41.952169,30.9936338 41.6188732,30.9936338 L37.1782817,30.9936338 C36.935493,30.9936338 36.6984507,30.7551549 36.6984507,30.4161127 L36.5892676,29.1461408 C35.0247887,30.5066197 33.1758592,31.4849577 30.9318592,31.4849577 C26.8317465,31.4849577 23.3206479,29.1461408 23.3206479,24.7543944 C23.3206479,19.4302817 29.2208451,18.2723662 31.8110704,17.9261408 C36.0562817,17.3859718 36.4484789,17.0986479 36.4484789,15.972338 C36.4484789,13.5818028 36.0103099,11.6265634 33.0278873,11.6265634 C30.6402254,11.6265634 28.8372676,12.4612394 27.0242535,13.6780563 C26.7326197,13.8777465 26.2973239,14.4150423 25.7126197,14.4150423 C25.4252958,14.4150423 24.8894366,14.1162254 24.8894366,13.4410141 L24.8894366,11.2472958 C24.8894366,10.7990704 25.080507,10.3609014 25.6178028,10.0692676 C27.5716056,9.09811268 30.5913803,8.55794366 33.221831,8.55794366 Z M36.4484789,26.2211831 L36.4484789,19.7693239 C31.0295493,19.7693239 28.9823662,22.2144507 28.9823662,24.8520845 C28.9823662,26.7081972 29.9563944,28.5499437 32.538,28.5499437 C34.7891831,28.5499437 36.4484789,26.8518592 36.4484789,26.2211831 Z" id="Clip-38"></path>
                <path d="M5.42180282,7.68160563 C5.42180282,13.2355775 20.8884507,12.6566197 20.8884507,21.6771549 C20.8884507,31.4734648 9.22453521,33.7260845 1.0271831,29.8673239 C0.544478873,29.568507 0.448225352,29.3285915 0.448225352,28.8889859 L0.448225352,26.4093803 C0.448225352,25.9611549 0.597633803,25.5258592 1.42512676,25.5258592 C1.86616901,25.5258592 2.1491831,25.7772676 2.78847887,26.214 C9.57076056,30.9419155 15.4163662,28.1117746 15.4163662,24.0590704 C15.4163662,17.3845352 0.20256338,19.4288451 0.20256338,9.57219718 C0.20256338,5.04253521 3.71509859,1.04011268 10.2057465,1.04011268 C13.422338,1.04011268 16.3415493,1.66935211 18.0094648,2.30146479 C18.4490704,2.50402817 18.5410141,2.74969014 18.5410141,3.17923944 L18.5410141,6.01512676 C18.5410141,6.45616901 18.3944789,6.79664789 17.8672394,6.79664789 C17.4247606,6.79664789 17.0785352,6.5495493 16.5441127,6.16166197 C14.5989296,4.74946479 12.7356338,3.92053521 10.2976901,3.92053521 C7.57242254,3.92053521 5.42180282,5.4275493 5.42180282,7.68160563 Z" id="Clip-35"></path>
            </g>
        </g>
    </g>
</svg>