<?xml version="1.0" encoding="UTF-8"?>
<svg width="263px" height="140px" viewBox="0 0 263 140" version="1.1" xmlns="http://www.w3.org/2000/svg" xmlns:xlink="http://www.w3.org/1999/xlink">
    <!-- Generator: Sketch 46.2 (44496) - http://www.bohemiancoding.com/sketch -->
    <title>Logo APC</title>
    <desc>Created with Sketch.</desc>
    <defs></defs>
    <g id="Desktop---1440px" stroke="none" stroke-width="1" fill="none" fill-rule="evenodd">
        <g id="06.-Studio" transform="translate(-1027.000000, -4468.000000)" fill-rule="nonzero" fill="#FFFFFF">
            <g id="Logo-Grid" transform="translate(150.000000, 4468.000000)">
                <g id="Logo-APC" transform="translate(877.000000, 0.000000)">
                    <g id="APC-Logo/Grey" transform="translate(58.000000, 44.000000)">
                        <g id="APC-Logo/White">
                            <g id="Mark">
                                <path d="M43.7114261,43.1730587 L42.5824424,42.0240732 C42.2753954,41.7085022 41.771357,41.6996796 41.4534587,42.0043118 C32.9515361,50.2182003 19.5316279,50.4104217 10.798035,42.443408 C2.06444214,34.4763943 1.0235865,21.0926827 8.42038307,11.870669 C15.8171796,2.64865543 29.1053807,0.762893958 38.7749449,7.56297811 C39.135132,7.81665491 39.6326565,7.73076946 39.8869939,7.37101002 L39.8869939,7.37101002 L40.8071156,6.06393318 C40.9335689,5.8894653 40.9844819,5.67142767 40.9483743,5.45898477 C40.9122666,5.24654188 40.7921786,5.05758061 40.6151883,4.93470912 C29.560386,-2.84130071 14.3668932,-0.684969101 5.91119204,9.8600627 C-2.54450912,20.4050945 -1.35059889,35.7075213 8.63824478,44.8128789 C18.6270885,53.9182366 33.9710903,53.6909885 43.686024,44.2938136 C44.0046666,43.9889448 44.016037,43.4834845 43.7114261,43.1645895 L43.7114261,43.1645895 L43.7114261,43.1730587 Z" id="Shape"></path>
                                <path d="M42.5824424,15.2417017 C39.00476,9.61275592 32.829516,6.16883075 26.1613746,6.0836946 L25.8791287,6.0836946 C15.0166098,6.11032656 6.20321349,14.8844773 6.12579723,25.7490655 C6.04838097,36.6136538 14.7358468,45.5125611 25.5968828,45.6940514 L25.8791287,45.6940514 C27.0650298,45.6940359 28.2485662,45.5882224 29.4156701,45.3778687 C29.8496735,45.3004995 30.1389514,44.8860744 30.0620133,44.4519049 L30.0620133,44.4519049 L29.7797674,42.8766374 C29.7024147,42.4425416 29.2880778,42.1532021 28.8540007,42.2301566 L28.8540007,42.2301566 C27.798589,42.4173725 26.7279616,42.5052715 25.6561544,42.4927012 C17.7216955,42.3817872 10.9750357,36.6702209 9.55459455,28.8614926 C8.13415342,21.0527643 12.4371179,13.330368 19.8240377,10.4312427 C27.2109576,7.53211746 35.616286,10.266923 39.8841714,16.9581223 C39.9978306,17.13721 40.1780296,17.2637357 40.3850452,17.3098078 C40.5920608,17.3558799 40.8088966,17.3177158 40.987753,17.2037285 L40.987753,17.2037285 L42.3368885,16.3568104 C42.5159381,16.2431271 42.6424369,16.0628897 42.6884992,15.85583 C42.7345615,15.6487703 42.6964055,15.4318884 42.5824424,15.2529939 L42.5824424,15.2529939 L42.5824424,15.2417017 Z" id="Shape"></path>
                                <path d="M25.9017084,11.8850832 C19.2794401,11.8800704 13.5591641,16.5160012 12.1909887,22.9967755 C10.8228133,29.4775499 14.1808966,36.030856 20.2398551,38.7041545 C20.4333461,38.7907329 20.6533088,38.7968347 20.8513,38.721116 C21.0492912,38.6453974 21.2090726,38.4940685 21.2954549,38.3004569 L21.2954549,38.3004569 L21.9417981,36.8381117 C22.119815,36.4350647 21.9379766,35.9639524 21.5353639,35.7851103 L21.5353639,35.7851103 C16.6482098,33.6261313 14.0732803,28.2179047 15.4777731,23.0621121 C16.882266,17.9063196 21.8441835,14.5520847 27.1508171,15.1711847 C32.4574507,15.7902847 36.5143547,20.196703 36.6947925,25.537402 C36.7014234,25.7493266 36.7920065,25.9499231 36.9465901,26.0950084 C37.1011737,26.2400938 37.3070779,26.3177672 37.5189506,26.3109205 L37.5189506,26.3109205 L39.1192849,26.2572823 C39.3311644,26.25065 39.5317182,26.1600476 39.6767727,26.0054311 C39.8218271,25.8508146 39.899484,25.6448666 39.8926388,25.4329488 L39.8926388,25.4329488 C39.6782083,17.8673908 33.4686329,11.8544602 25.9017084,11.8850832 Z" id="Shape"></path>
                            </g>
                            <g id="Letters" transform="translate(52.866667, 5.200000)">
                                <path d="M79.9751995,5.95108755 C79.9751995,2.64810718 77.8894021,0.587273283 74.5334981,0.587273283 L71.5670935,0.587273283 C71.3908008,0.569410783 71.2158183,0.631759328 71.0905226,0.757081733 C70.9652269,0.882404137 70.9028916,1.05742385 70.9207503,1.23375405 L70.9207503,10.6768902 C70.9028916,10.8532204 70.9652269,11.0282401 71.0905226,11.1535625 C71.2158183,11.2788849 71.3908008,11.3412335 71.5670935,11.323371 L74.5334981,11.323371 C77.8922246,11.3346632 79.9751995,9.26536015 79.9751995,5.95108755 Z M72.6960772,9.74528037 L72.6960772,2.18512532 L74.4431794,2.18512532 C76.7717083,2.18512532 78.1631807,3.59665539 78.1631807,5.95108755 C78.1631807,8.3055197 76.7688858,9.74528037 74.4431794,9.74528037 L72.6988996,9.74528037 L72.6960772,9.74528037 Z" id="Shape"></path>
                                <path d="M68.6035113,9.74528037 L64.398047,9.74528037 L64.398047,6.72460602 L67.5027522,6.72460602 C67.6764118,6.73991147 67.8480563,6.67834012 67.9724093,6.55613322 C68.0967623,6.43392631 68.1613353,6.26335685 68.1490953,6.08941749 L68.1490953,5.80711148 C68.1648562,5.63129301 68.1018401,5.45753829 67.9770455,5.33271714 C67.852251,5.20789598 67.6785332,5.1448665 67.5027522,5.16063071 L64.398047,5.16063071 L64.398047,2.18512532 L68.3494899,2.18512532 C68.525271,2.20088953 68.6989887,2.13786005 68.8237833,2.01303889 C68.9485779,1.88821773 69.011594,1.71446301 68.9958331,1.53864455 L68.9958331,1.25633854 C69.0136918,1.08000833 68.9513565,0.904988618 68.8260608,0.779666214 C68.7007651,0.65434381 68.5257826,0.591995264 68.3494899,0.609857764 L63.2690633,0.609857764 C63.0927707,0.591995264 62.9177882,0.65434381 62.7924925,0.779666214 C62.6671967,0.904988618 62.6048615,1.08000833 62.6227202,1.25633854 L62.6227202,10.6768902 C62.6048615,10.8532204 62.6671967,11.0282401 62.7924925,11.1535625 C62.9177882,11.2788849 63.0927707,11.3412335 63.2690633,11.323371 L68.6035113,11.323371 C68.7798039,11.3412335 68.9547864,11.2788849 69.0800821,11.1535625 C69.2053779,11.0282401 69.2677131,10.8532204 69.2498544,10.6768902 L69.2498544,10.3945842 C69.2686285,10.2177915 69.2066995,10.0419568 69.0812859,9.91596869 C68.9558722,9.78998059 68.7803465,9.72727278 68.6035113,9.74528037 Z" id="Shape"></path>
                                <path d="M56.8903055,11.5238083 C58.281261,11.5262634 59.629241,11.041886 60.7006254,10.1546241 C60.9683154,9.95541675 61.0261761,9.57798435 60.8304586,9.30770605 L60.796589,9.26536015 L60.5736148,8.98305413 C60.468987,8.82539234 60.2942079,8.7285062 60.1050865,8.7233326 C59.9445275,8.72976848 59.7906497,8.78934676 59.6676053,8.89271621 C58.8925902,9.5107906 57.9349967,9.85520065 56.9439322,9.87231808 C54.5109723,9.87231808 53.2380432,7.89617598 53.2380432,5.92003388 C53.2380432,3.66158577 54.7565263,2.1089027 56.9298199,2.1089027 C57.8378916,2.1146192 58.7231474,2.39402605 59.4700332,2.91065178 C59.60476,3.02581933 59.7842919,3.07394798 59.9585446,3.0416112 C60.1327973,3.00927441 60.2831194,2.89993339 60.3675752,2.74409123 L60.5623249,2.44484685 C60.6646428,2.31649576 60.711726,2.15271368 60.6931951,1.98960677 C60.6746642,1.82649987 60.5920406,1.67746035 60.4635389,1.57534433 L60.4324918,1.55275985 C59.3988878,0.804499513 58.1489823,0.414874246 56.8733707,0.443297216 C53.7122164,0.443297216 51.417557,2.75256041 51.417557,5.93132612 C51.3949773,9.1552608 53.7009265,11.5238083 56.8903055,11.5238083 Z" id="Shape"></path>
                                <path d="M41.589754,11.3346632 L42.0611047,11.3346632 C42.2373973,11.3525257 42.4123798,11.2901772 42.5376755,11.1648548 C42.6629713,11.0395324 42.7253065,10.8645127 42.7074478,10.6881825 L42.7074478,4.41534283 C42.7074478,4.16409048 42.7074478,3.8507308 42.6735783,3.56842479 C42.837281,3.8507308 43.0348531,4.21772862 43.212668,4.49156545 L47.6608638,10.9140273 C47.7965042,11.1798776 48.0771542,11.3396491 48.374946,11.3205479 L48.9394378,11.3205479 C49.1157305,11.3384104 49.2907129,11.2760619 49.4160087,11.1507395 C49.5413044,11.0254171 49.6036397,10.8503974 49.585781,10.6740672 L49.585781,1.24222324 C49.6036397,1.06589303 49.5413044,0.890873317 49.4160087,0.765550913 C49.2907129,0.640228509 49.1157305,0.577879963 48.9394378,0.595742464 L48.4765545,0.595742464 C48.3007735,0.579978254 48.1270557,0.643007735 48.0022611,0.767828893 C47.8774665,0.892650051 47.8144505,1.06640477 47.8302113,1.24222324 L47.8302113,7.52917816 C47.8302113,7.77196134 47.8302113,8.07685183 47.8640808,8.3478656 C47.7003782,8.06555959 47.5028061,7.70420789 47.3249911,7.43884024 L42.8796178,0.993793943 C42.7374178,0.729380826 42.4537334,0.572603551 42.1542458,0.592919404 L41.589754,0.592919404 C41.4134613,0.575056903 41.2384788,0.637405449 41.1131831,0.762727853 C40.9878874,0.888050257 40.9255521,1.06306997 40.9434108,1.23940018 L40.9434108,10.6768902 C40.921853,10.8550604 40.9825438,11.0333586 41.1083181,11.1613571 C41.2340925,11.2893556 41.4112752,11.3531374 41.589754,11.3346632 Z" id="Shape"></path>
                                <path d="M30.9236805,11.3346632 L31.4260783,11.3346632 C31.7445092,11.3507602 32.0296901,11.1389002 32.106291,10.8293355 L32.9868982,8.3478656 L36.6843198,8.3478656 L37.5762169,10.8349816 C37.659686,11.147628 37.9502417,11.3594141 38.2733644,11.3431324 L38.7757621,11.3431324 C38.971002,11.3577226 39.16094,11.2753986 39.2838048,11.1229337 C39.3947467,10.9547712 39.4107645,10.7411547 39.3261417,10.5583217 L35.8912088,1.10671635 C35.810579,0.790540713 35.5168792,0.57614164 35.1912389,0.595742464 L34.4828016,0.595742464 C34.1636766,0.579386354 33.8775484,0.791071671 33.7997665,1.10107023 L30.3591887,10.5611448 C30.2646753,10.7412385 30.2807533,10.9594134 30.4006451,11.1237002 C30.520537,11.287987 30.7233849,11.3698044 30.9236805,11.3346632 L30.9236805,11.3346632 Z M33.4808286,6.81776701 L34.5731203,3.71240086 C34.6606166,3.43009484 34.7650475,3.08003539 34.8553662,2.77796795 C34.9315726,3.08003539 35.0331812,3.44421014 35.1206774,3.71240086 L36.1988568,6.81776701 L33.4808286,6.81776701 Z" id="Shape"></path>
                                <path d="M24.6832232,10.8321585 C24.7727856,11.1460294 25.068792,11.3551578 25.3944829,11.3346632 L26.1029202,11.3346632 C26.4253787,11.3548894 26.7172356,11.1445186 26.8000676,10.8321585 L30.2660475,1.36079176 C30.3605609,1.18069806 30.344483,0.962523142 30.2245911,0.798236339 C30.1046993,0.633949535 29.9018513,0.552132092 29.7015557,0.587273283 L29.1709334,0.587273283 C28.8466515,0.563875188 28.5525096,0.777084143 28.4737859,1.09260105 L25.9928443,8.06555959 C25.9081705,8.3478656 25.8122069,8.67816364 25.7360005,8.96046965 C25.6597941,8.67816364 25.5638305,8.3337503 25.4706893,8.05991347 L23.0207947,1.10953941 C22.9431822,0.791332515 22.6474792,0.575471114 22.3208248,0.598565524 L21.756333,0.598565524 C21.5580307,0.570282887 21.3606014,0.655498058 21.2451338,0.819211192 C21.1296662,0.982924327 21.1156245,1.19753864 21.2087759,1.37490706 L24.6832232,10.8321585 Z" id="Shape"></path>
                                <path d="M11.9426422,11.3346632 L14.9090469,11.3346632 C18.2649509,11.3346632 20.3507483,9.27100627 20.3507483,5.95108755 C20.3507483,2.63116882 18.2649509,0.587273283 14.9090469,0.587273283 L11.9426422,0.587273283 C11.7663495,0.569410783 11.5913671,0.631759328 11.4660713,0.757081733 C11.3407756,0.882404137 11.2784403,1.05742385 11.296299,1.23375405 L11.296299,10.6768902 C11.2747412,10.8550604 11.335432,11.0333586 11.4612064,11.1613571 C11.5869807,11.2893556 11.7641634,11.3531374 11.9426422,11.3346632 L11.9426422,11.3346632 Z M13.0716259,9.74528037 L13.0716259,2.18512532 L14.8159057,2.18512532 C17.1444346,2.18512532 18.535907,3.59665539 18.535907,5.95108755 C18.535907,8.3055197 17.147257,9.74528037 14.8159057,9.74528037 L13.0716259,9.74528037 L13.0716259,9.74528037 Z" id="Shape"></path>
                                <path d="M1.70558257,11.3346632 C2.02504877,11.3521546 2.31182126,11.1399926 2.38861771,10.8293355 L3.26640253,8.3478656 L6.96382412,8.3478656 L7.85289878,10.8349816 C7.93636778,11.147628 8.22692355,11.3594141 8.55004621,11.3431324 L9.05244395,11.3431324 C9.24760055,11.3572307 9.43731995,11.2750014 9.56048661,11.1229337 C9.67142849,10.9547712 9.68744631,10.7411547 9.6028235,10.5583217 L6.18200291,1.10671635 C6.10255427,0.79097372 5.80980021,0.57639977 5.48485548,0.595742464 L4.77641822,0.595742464 C4.45213636,0.572344368 4.15799445,0.785553323 4.07927079,1.10107023 L0.655627738,10.5639678 C0.561114333,10.7440615 0.577192305,10.9622364 0.697084154,11.1265232 C0.816976004,11.29081 1.01982395,11.3726275 1.22011958,11.3374863 L1.71969487,11.3374863 L1.70558257,11.3346632 Z M3.76033289,6.81776701 L4.85262462,3.71240086 C4.94012085,3.43009484 5.04455184,3.08003539 5.13487054,2.78079101 C5.21107694,3.08285845 5.31268547,3.4470332 5.40018171,3.71522392 L6.47836113,6.82059007 L3.76033289,6.82059007 L3.76033289,6.81776701 Z" id="Shape"></path>
                                <path d="M5.67678271,15.5579612 L2.3547482,15.5579612 C2.17845552,15.5400987 2.00347306,15.6024472 1.87817734,15.7277696 C1.75288161,15.853092 1.69054633,16.0281118 1.70840503,16.204442 L1.70840503,25.6391089 C1.69054633,25.8154392 1.75288161,25.9904589 1.87817734,26.1157813 C2.00347306,26.2411037 2.17845552,26.3034522 2.3547482,26.2855897 L2.82609889,26.2855897 C3.00239156,26.3034522 3.17737402,26.2411037 3.30266975,26.1157813 C3.42796548,25.9904589 3.49030075,25.8154392 3.47244205,25.6391089 L3.47244205,22.4462279 L5.67396025,22.4462279 C7.68919614,22.4462279 9.09478084,21.0346979 9.09478084,18.9795101 C9.09478084,16.9243223 7.68919614,15.5579612 5.67678271,15.5579612 Z M7.30251923,18.9795101 C7.30251923,20.1539031 6.6053718,20.8568451 5.43969614,20.8568451 L3.46397467,20.8568451 L3.46397467,17.1473441 L5.43969614,17.1473441 C6.61101672,17.1473441 7.30251923,17.8333477 7.30251923,18.9795101 L7.30251923,18.9795101 Z" id="Shape"></path>
                                <path d="M12.6313223,25.6391089 L12.6313223,22.1385144 L14.6070437,22.1385144 L16.5827652,25.8508385 C16.7096951,26.1286875 16.9948735,26.2993818 17.2996698,26.2799436 L17.8895638,26.2799436 C18.0956402,26.3143054 18.3013309,26.2167776 18.4051877,26.0354617 C18.5090445,25.8541458 18.4891313,25.6273382 18.3552696,25.4669023 L16.4811566,21.9973614 C16.4176548,21.8789546 16.3479367,21.7639896 16.2722947,21.652948 C17.3589415,21.1984354 18.050444,20.0663882 18.050444,18.7084963 C18.050444,17.3506044 17.4182131,16.3258336 16.317454,15.831798 C15.8376359,15.6172455 15.2929013,15.549492 14.3050406,15.549492 L11.5023386,15.549492 C11.3260459,15.5316295 11.1510634,15.5939781 11.0257677,15.7193005 C10.900472,15.8446229 10.8381367,16.0196426 10.8559954,16.1959728 L10.8559954,25.6334628 C10.8381367,25.809793 10.900472,25.9848127 11.0257677,26.1101352 C11.1510634,26.2354576 11.3260459,26.2978061 11.5023386,26.2799436 L11.9736893,26.2799436 C12.1507444,26.3012029 12.3279115,26.2412097 12.4556411,26.1167427 C12.5833707,25.9922758 12.6479517,25.816696 12.6313223,25.6391089 L12.6313223,25.6391089 Z M12.6313223,20.5576007 L12.6313223,17.1473441 L14.2118994,17.1473441 C14.6114828,17.114801 15.0133276,17.170705 15.3888649,17.3110815 C15.9710921,17.5650648 16.3289236,18.1596901 16.280762,18.7931881 C16.280762,19.8715971 15.6146617,20.5660699 14.5872865,20.5660699 L12.6313223,20.5660699 L12.6313223,20.5576007 Z" id="Shape"></path>
                                <path d="M25.0501429,26.486027 C28.1858951,26.486027 30.5511159,24.0694875 30.5511159,20.8653143 C30.6125481,17.9037958 28.262224,15.4531245 25.3013417,15.3914006 L25.0501429,15.3914006 C21.9059233,15.3914006 19.5350575,17.7430097 19.5350575,20.8653143 C19.5237677,24.0581953 21.891811,26.486027 25.0501429,26.486027 Z M25.0501429,17.0541831 C27.1472301,17.0541831 28.7193399,18.6915579 28.7193399,20.8653143 C28.7193399,23.1237624 27.1387627,24.8175984 25.0501429,24.8175984 C22.961523,24.8175984 21.3583662,23.1237624 21.3583662,20.8653143 C21.3583662,18.6830888 22.9445883,17.0457139 25.0501429,17.0457139 L25.0501429,17.0457139 L25.0501429,17.0541831 Z" id="Shape"></path>
                                <path d="M36.3794942,15.5579612 L33.0574597,15.5579612 C32.881167,15.5400987 32.7061846,15.6024472 32.5808889,15.7277696 C32.4555931,15.853092 32.3932579,16.0281118 32.4111166,16.204442 L32.4111166,25.6391089 C32.3932579,25.8154392 32.4555931,25.9904589 32.5808889,26.1157813 C32.7061846,26.2411037 32.881167,26.3034522 33.0574597,26.2855897 L33.5175206,26.2855897 C33.6938132,26.3034522 33.8687957,26.2411037 33.9940914,26.1157813 C34.1193872,25.9904589 34.1817224,25.8154392 34.1638637,25.6391089 L34.1638637,22.4462279 L36.3653819,22.4462279 C38.3806178,22.4462279 39.7862025,21.0346979 39.7862025,18.9795101 C39.7862025,16.9243223 38.3919077,15.5579612 36.3794942,15.5579612 Z M38.0052307,18.9795101 C38.0052307,20.1539031 37.3109058,20.8568451 36.1452301,20.8568451 L34.1695087,20.8568451 L34.1695087,17.1473441 L36.1452301,17.1473441 C37.3137282,17.1473441 38.0052307,17.8333477 38.0052307,18.9795101 L38.0052307,18.9795101 Z" id="Shape"></path>
                                <path d="M50.0797113,16.204442 C50.0954722,16.0286235 50.0324561,15.8548688 49.9076615,15.7300476 C49.782867,15.6052265 49.6091492,15.542197 49.4333682,15.5579612 L48.9479052,15.5579612 C48.7721241,15.542197 48.5984064,15.6052265 48.4736118,15.7300476 C48.3488172,15.8548688 48.2858012,16.0286235 48.301562,16.204442 L48.301562,22.4151743 C48.301562,23.8916347 47.3503933,24.8091293 45.8206204,24.8091293 C44.2908475,24.8091293 43.3396787,23.8972808 43.3396787,22.4321126 L43.3396787,16.204442 C43.3600573,16.0300522 43.3005743,15.8557886 43.1778266,15.7302743 C43.055079,15.60476 42.8822078,15.5414324 42.7074478,15.5579612 L42.2135175,15.5579612 C42.0377364,15.542197 41.8640187,15.6052265 41.7392241,15.7300476 C41.6144295,15.8548688 41.5514134,16.0286235 41.5671743,16.204442 L41.5671743,22.449051 C41.5671743,24.8571213 43.2804071,26.4747348 45.8290877,26.4747348 C48.3777684,26.4747348 50.0627766,24.8571213 50.0627766,22.449051 L50.0627766,16.204442 L50.0797113,16.204442 L50.0797113,16.204442 Z" id="Shape"></path>
                                <path d="M58.4285457,24.7074991 L54.4037189,24.7074991 L54.4037189,16.204442 C54.4215776,16.0281118 54.3592423,15.853092 54.2339466,15.7277696 C54.1086508,15.6024472 53.9336684,15.5400987 53.7573757,15.5579612 L53.2747352,15.5579612 C53.0984425,15.5400987 52.9234601,15.6024472 52.7981643,15.7277696 C52.6728686,15.853092 52.6105333,16.0281118 52.628392,16.204442 L52.628392,25.6391089 C52.6105333,25.8154392 52.6728686,25.9904589 52.7981643,26.1157813 C52.9234601,26.2411037 53.0984425,26.3034522 53.2747352,26.2855897 L58.4257233,26.2855897 C58.6015043,26.3013539 58.7752221,26.2383244 58.9000167,26.1135033 C59.0248112,25.9886821 59.0878273,25.8149274 59.0720665,25.6391089 L59.0720665,25.3568029 C59.088597,25.1810528 59.0263402,25.0070216 58.9020901,24.8816549 C58.7778399,24.7562882 58.6043961,24.6925006 58.4285457,24.7074991 L58.4285457,24.7074991 Z" id="Shape"></path>
                                <path d="M64.090399,20.1313186 C62.9981072,19.6655137 62.0554059,19.2646392 62.0554059,18.3612599 C62.0554059,17.5820953 62.7440859,17.0598292 63.7686386,17.0598292 C64.4236597,17.0766541 65.0605992,17.2782477 65.6060596,17.6413796 C65.7256299,17.7197609 65.8640409,17.7646078 66.0068488,17.7712403 C66.2143124,17.7644677 66.4001098,17.6409408 66.4866669,17.4522345 L66.6983513,17.0767676 C66.8783302,16.7916564 66.7967132,16.4148826 66.5148914,16.2298495 L66.5148914,16.2298495 C65.7182806,15.6815866 64.7722784,15.3918117 63.8053306,15.3998698 C61.7534027,15.3998698 60.2659667,16.6843622 60.2659667,18.4515978 C60.2659667,20.3176406 61.8211417,20.992352 63.1928569,21.6106021 C64.3218406,22.1074607 65.2842992,22.5337428 65.2842992,23.482291 C65.2842992,24.2896862 64.6294887,24.8119523 63.6162258,24.8119523 C62.8180537,24.7838157 62.050528,24.497542 61.4288199,23.9960879 C61.2995753,23.8840669 61.1279184,23.8339845 60.9587282,23.8589345 C60.789538,23.8838845 60.6396357,23.9813864 60.5482126,24.1259487 L60.2857239,24.4760082 C60.0608754,24.7181152 60.07348,25.0963331 60.3139485,25.3229262 L60.3732202,25.3709182 C61.3004907,26.0921002 62.4388462,26.4888242 63.6134034,26.5001423 C65.6540414,26.5001423 67.0793833,25.2156499 67.0793833,23.3721917 C67.0709159,21.4045187 65.4875163,20.7269843 64.090399,20.1313186 Z" id="Shape"></path>
                                <rect id="Rectangle-path" x="69.4163795" y="15.5579612" width="1.76685948" height="10.7389208" rx="0.883429739"></rect>
                                <path d="M78.5385678,15.3801084 C75.3943482,15.3801084 73.0319498,17.7317175 73.0319498,20.854022 C73.0319498,24.0581953 75.4028156,26.4747348 78.5470351,26.4747348 C81.6912547,26.4747348 84.0395408,24.0581953 84.0395408,20.854022 C84.100973,17.8925036 81.7506489,15.4418322 78.7897666,15.3801084 L78.5385678,15.3801084 L78.5385678,15.3801084 Z M78.5385678,24.8091293 C76.4330132,24.8091293 74.8467911,23.1152932 74.8467911,20.8568451 C74.8467911,18.6859118 76.4330132,17.0457139 78.5385678,17.0457139 C80.6441224,17.0457139 82.2077648,18.6830888 82.2077648,20.8568451 C82.2077648,23.0983548 80.635655,24.8091293 78.5385678,24.8091293 L78.5385678,24.8091293 Z" id="Shape"></path>
                                <path d="M93.7911375,15.5579612 L93.3197868,15.5579612 C93.1440057,15.542197 92.970288,15.6052265 92.8454934,15.7300476 C92.7206988,15.8548688 92.6576827,16.0286235 92.6734436,16.204442 L92.6734436,22.4913969 C92.6734436,22.7370031 92.6903784,23.0390706 92.7073131,23.3100843 C92.5436105,23.0277783 92.3460383,22.6664266 92.1682234,22.401059 L87.7313175,15.970128 C87.5896496,15.7051892 87.3055948,15.5482072 87.0059455,15.5692534 L86.4414536,15.5692534 C86.2651609,15.5513909 86.0901785,15.6137395 85.9648828,15.7390619 C85.839587,15.8643843 85.7772518,16.039404 85.7951105,16.2157342 L85.7951105,25.6504012 C85.7772518,25.8267314 85.839587,26.0017511 85.9648828,26.1270735 C86.0901785,26.2523959 86.2651609,26.3147445 86.4414536,26.296882 L86.9128043,26.296882 C87.089097,26.3147445 87.2640794,26.2523959 87.3893752,26.1270735 C87.5146709,26.0017511 87.5770062,25.8267314 87.5591475,25.6504012 L87.5591475,19.3775616 C87.5591475,19.1263092 87.5591475,18.8129495 87.525278,18.5306435 C87.6889806,18.8129495 87.8865527,19.1799474 88.0643677,19.4537842 L92.5069185,25.8903613 C92.6431143,26.1556802 92.9233822,26.3152342 93.2210007,26.296882 L93.7854925,26.296882 C93.9625746,26.3126036 94.1373016,26.2476073 94.2610783,26.1199695 C94.3848551,25.9923318 94.4444793,25.815667 94.4233683,25.6391089 L94.4233683,16.204442 C94.4405773,16.0307857 94.380047,15.858418 94.2580472,15.7336683 C94.1360473,15.6089187 93.9650943,15.5445858 93.7911375,15.5579612 Z" id="Shape"></path>
                                <path d="M10.2294095,38.879261 C10.1227132,38.7217614 9.94543918,38.626773 9.7552363,38.6251856 C9.59463312,38.6314084 9.4406887,38.6910125 9.31775512,38.7945692 C8.54042844,39.4170178 7.57840779,39.7635779 6.58279212,39.7798172 C4.14983227,39.7798172 2.87690315,37.8036751 2.87690315,35.827533 C2.87690315,33.5690849 4.39538622,32.0164018 6.56867983,32.0164018 C7.47697238,32.0207103 8.36263449,32.3002454 9.10889314,32.8181509 C9.24361992,32.9333184 9.42315187,32.9814471 9.59740457,32.9491103 C9.77165727,32.9167735 9.92197936,32.8074325 10.0064352,32.6515903 L10.2011849,32.352346 C10.4022086,32.0844668 10.3534012,31.7051904 10.0911089,31.4969587 L10.0600619,31.4743743 C9.02946528,30.7286522 7.78397418,30.3391675 6.51223064,30.3649116 C3.3510763,30.3649116 1.05641695,32.6741748 1.05641695,35.8529405 C1.05641695,39.1022827 3.36236614,41.459538 6.5432777,41.459538 C7.93427448,41.4622314 9.28233296,40.9778258 10.3535977,40.0903538 C10.6236467,39.8928776 10.6829828,39.5140562 10.4862532,39.2434358 L10.4495613,39.1954437 L10.2294095,38.879261 Z" id="Shape"></path>
                                <path d="M18.2931755,39.6697178 L14.0848888,39.6697178 L14.0848888,36.6490435 L17.1895939,36.6490435 C17.365375,36.6648077 17.5390927,36.6017782 17.6638873,36.4769571 C17.7886819,36.3521359 17.8516979,36.1783812 17.8359371,36.0025627 L17.8359371,35.7202567 C17.8516979,35.5444382 17.7886819,35.3706835 17.6638873,35.2458624 C17.5390927,35.1210412 17.365375,35.0580117 17.1895939,35.0737759 L14.0848888,35.0737759 L14.0848888,32.1095628 L18.0363317,32.1095628 C18.2121127,32.125327 18.3858305,32.0622975 18.510625,31.9374764 C18.6354196,31.8126552 18.6984357,31.6389005 18.6826748,31.463082 L18.6826748,31.180776 C18.7005335,31.0044458 18.6381983,30.8294261 18.5129025,30.7041037 C18.3876068,30.5787813 18.2126244,30.5164327 18.0363317,30.5342952 L12.9559051,30.5342952 C12.7796124,30.5164327 12.6046299,30.5787813 12.4793342,30.7041037 C12.3540385,30.8294261 12.2917032,31.0044458 12.3095619,31.180776 L12.3095619,40.6013277 C12.2917032,40.7776579 12.3540385,40.9526776 12.4793342,41.078 C12.6046299,41.2033224 12.7796124,41.265671 12.9559051,41.2478085 L18.2762407,41.2478085 C18.4525334,41.265671 18.6275159,41.2033224 18.7528116,41.078 C18.8781073,40.9526776 18.9404426,40.7776579 18.9225839,40.6013277 L18.9225839,40.3190217 C18.9405726,40.14543 18.8808044,39.9727792 18.7593462,39.8474818 C18.6378881,39.7221844 18.4672031,39.6570974 18.2931755,39.6697178 L18.2931755,39.6697178 Z" id="Shape"></path>
                                <path d="M28.6261987,30.5201799 L28.154848,30.5201799 C27.979067,30.5044157 27.8053493,30.5674452 27.6805547,30.6922664 C27.5557601,30.8170875 27.492744,30.9908422 27.5085049,31.1666607 L27.5085049,37.4536156 C27.5085049,37.6992219 27.5085049,38.0012893 27.5423744,38.2723031 C27.3786717,37.9899971 27.1810996,37.6286454 27.0032847,37.3632777 L22.5663788,30.9182314 C22.4241787,30.6538183 22.1404943,30.497041 21.8410067,30.5173569 L21.2765149,30.5173569 C21.1002222,30.4994944 20.9252398,30.5618429 20.799944,30.6871653 C20.6746483,30.8124877 20.612313,30.9875074 20.6301717,31.1638376 L20.6301717,40.6013277 C20.612313,40.7776579 20.6746483,40.9526776 20.799944,41.078 C20.9252398,41.2033224 21.1002222,41.265671 21.2765149,41.2478085 L21.7478656,41.2478085 C21.9241582,41.265671 22.0991407,41.2033224 22.2244364,41.078 C22.3497322,40.9526776 22.4120674,40.7776579 22.3942087,40.6013277 L22.3942087,34.3397803 C22.3942087,34.0885279 22.3942087,33.7751683 22.3603392,33.4928623 C22.5240419,33.7751683 22.721614,34.1421661 22.8994289,34.4160029 L27.3476247,40.8384647 C27.4832651,41.104315 27.7639151,41.2640866 28.0617069,41.2449854 L28.6261987,41.2449854 C28.8024914,41.2628479 28.9774739,41.2004993 29.1027696,41.0751769 C29.2280653,40.9498545 29.2904006,40.7748348 29.2725419,40.5985046 L29.2725419,31.1666607 C29.2904006,30.9903305 29.2280653,30.8153108 29.1027696,30.6899884 C28.9774739,30.564666 28.8024914,30.5023174 28.6261987,30.5201799 Z" id="Shape"></path>
                                <path d="M38.7475375,30.5201799 L31.1043179,30.5201799 C30.9280253,30.5023174 30.7530428,30.564666 30.6277471,30.6899884 C30.5024513,30.8153108 30.4401161,30.9903305 30.4579748,31.1666607 L30.4579748,31.4489667 C30.4422139,31.6247852 30.50523,31.7985399 30.6300246,31.9233611 C30.7548192,32.0481822 30.9285369,32.1112117 31.1043179,32.0954475 L34.042498,32.0954475 L34.042498,40.6013277 C34.0221193,40.7757174 34.0816024,40.9499811 34.20435,41.0754954 C34.3270977,41.2010097 34.4999689,41.2643373 34.6747289,41.2478085 L35.1573694,41.2478085 C35.3331504,41.2635727 35.5068682,41.2005432 35.6316627,41.075722 C35.7564573,40.9509009 35.8194734,40.7771461 35.8037125,40.6013277 L35.8037125,32.1095628 L38.7418926,32.1095628 C38.9161157,32.1239679 39.0876936,32.059963 39.2099363,31.9349651 C39.3321789,31.8099672 39.3923676,31.6369817 39.3741235,31.463082 L39.3741235,31.180776 C39.3989009,31.0051882 39.3422288,30.8278876 39.2202069,30.6992425 C39.098185,30.5705974 38.9241481,30.5046666 38.7475375,30.5201799 L38.7475375,30.5201799 Z" id="Shape"></path>
                                <path d="M46.2185871,36.9793415 C46.1542279,36.860837 46.0835651,36.7458677 46.0069027,36.6349282 C47.0935495,36.1804155 47.785052,35.0455453 47.785052,33.6904765 C47.785052,32.3354076 47.1528211,31.3078137 46.052062,30.8137782 C45.5722439,30.5992256 45.0275093,30.5314722 44.0396486,30.5314722 L41.2369466,30.5314722 C41.0606539,30.5136097 40.8856714,30.5759582 40.7603757,30.7012806 C40.63508,30.826603 40.5727447,31.0016227 40.5906034,31.1779529 L40.5906034,40.6013277 C40.5727447,40.7776579 40.63508,40.9526776 40.7603757,41.078 C40.8856714,41.2033224 41.0606539,41.265671 41.2369466,41.2478085 L41.7026523,41.2478085 C41.878945,41.265671 42.0539275,41.2033224 42.1792232,41.078 C42.3045189,40.9526776 42.3668542,40.7776579 42.3489955,40.6013277 L42.3489955,37.1007331 L44.324717,37.1007331 L46.3004384,40.8187033 C46.427741,41.0975659 46.7143697,41.2684555 47.0201655,41.2478085 L47.6298167,41.2478085 C47.8358931,41.2821702 48.0415838,41.1846424 48.1454406,41.0033265 C48.2492974,40.8220106 48.2293843,40.595203 48.0955225,40.4347671 L46.2185871,36.9793415 Z M46.0012577,33.7554068 C46.0012577,34.8338158 45.3351574,35.5282886 44.3077822,35.5282886 L42.3715752,35.5282886 L42.3715752,32.1095628 L43.9606197,32.1095628 C44.3602005,32.0771126 44.7620251,32.1330138 45.1375852,32.2733003 C45.7088911,32.5336963 46.0563036,33.1237463 46.0069027,33.7497607 L46.0069027,33.7497607 L46.0012577,33.7554068 Z" id="Shape"></path>
                                <path d="M55.9645388,39.6697178 L51.7590746,39.6697178 L51.7590746,36.6490435 L54.8637797,36.6490435 C55.0395608,36.6648077 55.2132785,36.6017782 55.3380731,36.4769571 C55.4628677,36.3521359 55.5258838,36.1783812 55.5101229,36.0025627 L55.5101229,35.7202567 C55.5258838,35.5444382 55.4628677,35.3706835 55.3380731,35.2458624 C55.2132785,35.1210412 55.0395608,35.0580117 54.8637797,35.0737759 L51.7590746,35.0737759 L51.7590746,32.1095628 L55.7105175,32.1095628 C55.8862985,32.125327 56.0600163,32.0622975 56.1848109,31.9374764 C56.3096055,31.8126552 56.3726215,31.6389005 56.3568607,31.463082 L56.3568607,31.180776 C56.3747194,31.0044458 56.3123841,30.8294261 56.1870884,30.7041037 C56.0617926,30.5787813 55.8868102,30.5164327 55.7105175,30.5342952 L50.6300909,30.5342952 C50.4537982,30.5164327 50.2788158,30.5787813 50.15352,30.7041037 C50.0282243,30.8294261 49.965889,31.0044458 49.9837477,31.180776 L49.9837477,40.6013277 C49.965889,40.7776579 50.0282243,40.9526776 50.15352,41.078 C50.2788158,41.2033224 50.4537982,41.265671 50.6300909,41.2478085 L55.9560715,41.2478085 C56.1332873,41.2675084 56.3099024,41.2059757 56.4365315,41.0804163 C56.5631605,40.9548568 56.6262135,40.7787458 56.6080595,40.6013277 L56.6080595,40.3190217 C56.6266902,40.142769 56.5651198,39.9674757 56.4403707,39.8416055 C56.3156216,39.7157353 56.14091,39.6526232 55.9645388,39.6697178 Z" id="Shape"></path>
                            </g>
                        </g>
                    </g>
                </g>
            </g>
        </g>
    </g>
</svg>