<?xml version="1.0" encoding="UTF-8"?>
<svg width="134px" height="143px" viewBox="0 0 134 143" version="1.1" xmlns="http://www.w3.org/2000/svg" xmlns:xlink="http://www.w3.org/1999/xlink">
    <title>Artboard</title>
    <g id="Artboard" stroke="none" stroke-width="1" fill="none" fill-rule="evenodd">
        <g id="style-/-logo-/-sainsburys" transform="translate(0.000000, 52.000000)" fill="#FFFFFF">
            <g>
                <path d="M124.768986,9.01119718 C124.768986,11.5184577 132.881986,10.3792183 132.881986,15.3881366 C132.881986,21.2216028 126.389338,21.1870521 122.863901,19.6005211 C122.481761,19.4137606 122.390908,19.1289507 122.390908,18.7778408 L122.390908,17.5442873 C122.390908,17.0997972 122.578232,16.9699986 122.892937,16.9699986 C123.117725,16.9699986 123.309732,17.0699155 123.499866,17.2295958 C126.22543,19.3222479 130.014056,19.0925324 130.014056,16.9130366 C130.014056,14.1797958 122.004085,15.2256549 122.004085,10.1849873 C122.004085,5.71954225 127.537634,4.79601127 131.66719,6.51047324 C132.055887,6.66081549 132.152359,6.98204366 132.152359,7.33315352 L132.152359,8.37527746 C132.152359,8.82443662 131.959415,8.9495662 131.638155,8.9495662 C131.47612,8.9495662 131.226979,8.82443662 131.032162,8.69650563 C128.745873,7.14172394 124.768986,6.95029437 124.768986,9.01119718 Z" id="Clip-5"></path>
                <path d="M121.862655,0.66953662 C124.637859,0.66953662 122.945387,6.28262535 121.443986,6.28262535 L120.776176,6.28262535 C120.544831,6.28262535 120.387479,6.15656197 120.387479,5.9996831 C120.387479,5.58600845 120.901683,5.10323239 120.901683,3.76789437 C120.901683,2.4540338 119.941648,1.50155493 119.941648,1.11496056 C119.941648,0.924464789 120.005338,0.66953662 120.352824,0.66953662 L121.862655,0.66953662 Z" id="Clip-2"></path>
                <path d="M112.837387,21.6166014 C112.041261,23.6681662 109.754035,25.3854296 107.301028,25.3854296 C106.885169,25.3854296 106.512394,25.3854296 105.963535,25.2210803 C105.554232,25.1277 105.33319,24.8793085 105.33319,24.5599479 L105.33319,22.7539732 C105.33319,22.5307944 105.52707,22.3122845 105.747176,22.3122845 C106.095599,22.3122845 106.349423,22.4056648 106.731563,22.5037141 C109.242641,23.2031324 111.469923,22.4056648 111.535486,20.0571507 L105.747176,6.70937324 C105.617923,6.39281408 105.584204,6.30036761 105.584204,6.20605352 C105.584204,6.01649155 105.679739,5.92030986 105.869873,5.92030986 L109.345669,5.92030986 C109.626655,5.92030986 109.754035,6.01649155 109.850507,6.26955211 L113.088401,14.8297225 L113.280408,15.4292239 L113.470542,14.8297225 L116.619458,6.26955211 C116.685021,6.04824085 116.84331,5.92030986 117.069972,5.92030986 L118.526415,5.92030986 C118.684704,5.92030986 118.816768,6.04824085 118.816768,6.20605352 C118.816768,6.3302493 118.750268,6.42176197 118.684704,6.61599296 L112.837387,21.6166014 Z" id="Clip-44"></path>
                <path d="M103.967599,5.82226056 C104.378775,5.91937606 104.600754,6.17710563 104.600754,6.48992958 L104.600754,8.49200282 C104.600754,8.70584366 104.41062,8.93369155 104.182085,8.93369155 C103.839282,8.93369155 103.514275,8.80202535 103.106845,8.70584366 C101.381592,8.35940282 98.7834085,8.4546507 98.7834085,11.1841563 L98.7834085,19.7396577 C98.7834085,19.9637704 98.6185634,20.1234507 98.4040775,20.1234507 L95.3450775,20.1234507 C95.1858521,20.1234507 95.0285,19.9637704 95.0285,19.7396577 L95.0285,6.30036761 C95.0285,6.07532113 95.1858521,5.91937606 95.3450775,5.91937606 L98.3076056,5.91937606 C98.5249014,5.91937606 98.6869366,6.07532113 98.6869366,6.30036761 L98.7515634,8.00829296 C99.3594296,7.12398169 100.791521,5.66444789 102.557986,5.66444789 C102.971972,5.66444789 103.358796,5.66444789 103.967599,5.82226056 Z" id="Clip-17"></path>
                <path d="M91.9123662,5.92030986 C92.1268521,5.92030986 92.2916972,6.07625493 92.2916972,6.30130141 L92.2916972,15.1752296 C92.2916972,19.1056056 89.1156197,20.4400099 85.9329859,20.4400099 C82.7812606,20.4400099 79.6023732,19.1056056 79.6023732,15.5571549 L79.6023732,6.30130141 C79.6023732,6.07625493 79.760662,5.92030986 79.9217606,5.92030986 L82.9760775,5.92030986 C83.1952465,5.92030986 83.3554085,6.07625493 83.3554085,6.30130141 L83.3554085,16.2855211 C83.3554085,17.7814732 84.3116972,18.6956662 85.9329859,18.6956662 C87.9111268,18.6956662 88.5414718,17.5881761 88.5414718,15.5254056 L88.5414718,6.30130141 C88.5414718,6.07625493 88.703507,5.92030986 88.863669,5.92030986 L91.9123662,5.92030986 Z" id="Clip-23"></path>
                <path d="M72.3576197,5.74849014 C75.6339155,5.74849014 77.699162,8.60312535 77.699162,12.402769 C77.699162,17.2912268 74.2964225,20.5221845 70.0956831,20.5221845 C67.8019014,20.5221845 66.1234789,19.7256507 65.0126479,18.8749563 C64.5368451,18.5266479 64.4385,17.9271465 64.4385,17.4182239 L64.4385,1.05332958 C64.4385,0.832952113 64.5958521,0.676073239 64.7541408,0.676073239 L67.8019014,0.676073239 C68.0248169,0.676073239 68.1868521,0.832952113 68.1868521,1.05332958 L68.1868521,7.36303521 C68.7900352,6.85971549 70.1893451,5.74849014 72.3576197,5.74849014 Z M70.3466972,18.8114577 C72.3819718,18.8114577 73.822493,16.7225408 73.822493,13.1656859 C73.822493,11.8378183 73.5274577,8.09513662 70.6379859,8.09513662 C69.4896901,8.09513662 68.6598451,8.72825493 68.1868521,9.07562958 L68.1868521,17.6423366 C68.1868521,17.9271465 68.2458592,18.2063535 68.6326831,18.4631493 C68.9483239,18.6489761 69.4269366,18.8114577 70.3466972,18.8114577 Z" id="Clip-32"></path>
                <path d="M54.6105493,9.01119718 C54.6105493,11.5184577 62.716993,10.3792183 62.716993,15.3881366 C62.716993,21.2216028 56.2252817,21.1870521 52.7054648,19.6005211 C52.3148944,19.4137606 52.2212324,19.1289507 52.2212324,18.7778408 L52.2212324,17.5442873 C52.2212324,17.0997972 52.4179225,16.9699986 52.7335634,16.9699986 C52.9527324,16.9699986 53.1466127,17.0699155 53.3367465,17.2295958 C56.0735493,19.3222479 59.8537465,19.0925324 59.8537465,16.9130366 C59.8537465,14.1797958 51.8456479,15.2256549 51.8456479,10.1849873 C51.8456479,5.71954225 57.3726408,4.79601127 61.5115634,6.51047324 C61.8908944,6.66081549 61.985493,6.98204366 61.985493,7.33315352 L61.985493,8.37527746 C61.985493,8.82443662 61.7972324,8.9495662 61.4815915,8.9495662 C61.3214296,8.9495662 61.0610493,8.82443662 60.8755986,8.69650563 C58.5818169,7.14172394 54.6105493,6.95029437 54.6105493,9.01119718 Z" id="Clip-41"></path>
                <path d="M45.4316761,5.58974366 C48.498169,5.58974366 49.8721901,7.37050563 49.8721901,9.94686761 L49.8721901,19.7798113 C49.8721901,20.0048577 49.7101549,20.164538 49.4881761,20.164538 L46.4216831,20.164538 C46.2662042,20.164538 46.1088521,20.0048577 46.1088521,19.7798113 L46.1088521,10.2680958 C46.1088521,9.18581831 45.9805352,7.90930986 43.8675211,7.90930986 C42.7838521,7.90930986 41.5100493,8.54242817 40.9021831,8.90007465 L40.9021831,19.7798113 C40.9021831,20.0048577 40.7420211,20.164538 40.5134859,20.164538 L37.4535493,20.164538 C37.2933873,20.164538 37.1332254,20.0048577 37.1332254,19.7798113 L37.1332254,6.29009577 C37.1332254,6.0659831 37.2933873,5.90256761 37.4535493,5.90256761 L40.4216972,5.90256761 C40.6502324,5.90256761 40.8057113,6.0659831 40.8057113,6.29009577 L40.8722113,7.01939577 C41.8256901,6.44323944 43.6783239,5.58974366 45.4316761,5.58974366 Z" id="Clip-14"></path>
                <path d="M33.6209014,5.95952958 C33.8400704,5.95952958 33.9983592,6.11827606 33.9983592,6.33585211 L33.9983592,19.7788775 C33.9983592,20.0039239 33.8400704,20.1626704 33.6209014,20.1626704 L30.5675211,20.1626704 C30.4082958,20.1626704 30.2481338,20.0039239 30.2481338,19.7788775 L30.2481338,6.33585211 C30.2481338,6.11827606 30.4082958,5.95952958 30.5675211,5.95952958 L33.6209014,5.95952958 Z M32.0679859,0.533201408 C33.3989225,0.535069014 34.0667324,1.3605507 34.0667324,2.31116197 C34.0667324,3.45320282 33.3015141,4.21425211 32.0614296,4.21425211 C30.8175986,4.21425211 29.9943099,3.45320282 29.9943099,2.31116197 C29.9943099,1.3605507 30.6621197,0.535069014 32.0548732,0.533201408 L32.0679859,0.533201408 Z" id="Combined-style-/-shape"></path>
                <path d="M21.659331,5.56266338 C26.1476127,5.56266338 27.5150775,7.33875634 27.5150775,9.90764789 L27.5150775,19.7704732 C27.5150775,19.9908507 27.351169,20.145862 27.1338732,20.145862 L24.2387817,20.145862 C24.080493,20.145862 23.9259507,19.9908507 23.9259507,19.7704732 L23.8547676,18.9449915 C22.8347887,19.8293028 21.6293592,20.4652225 20.1663592,20.4652225 C17.4932465,20.4652225 15.2041479,18.9449915 15.2041479,16.0903563 C15.2041479,12.6296831 19.0508451,11.877038 20.7395704,11.6519915 C23.5072817,11.3008817 23.7629789,11.1141211 23.7629789,10.3820197 C23.7629789,8.82817183 23.4773099,7.5572662 21.5328873,7.5572662 C19.9762254,7.5572662 18.8007676,8.09980563 17.6187535,8.89073662 C17.4286197,9.02053521 17.1448239,9.36977746 16.7636197,9.36977746 C16.5762958,9.36977746 16.2269366,9.17554648 16.2269366,8.73665915 L16.2269366,7.31074225 C16.2269366,7.01939577 16.351507,6.73458592 16.7018028,6.54502394 C17.9756056,5.91377324 19.9443803,5.56266338 21.659331,5.56266338 Z M23.7629789,17.043769 L23.7629789,12.8500606 C20.2300493,12.8500606 18.8953662,14.439393 18.8953662,16.1538549 C18.8953662,17.3603282 19.5303944,18.5574634 21.2135,18.5574634 C22.6811831,18.5574634 23.7629789,17.4537085 23.7629789,17.043769 Z" id="Clip-38"></path>
                <path d="M3.53480282,4.99304366 C3.53480282,8.60312535 13.6184507,8.22680282 13.6184507,14.0901507 C13.6184507,20.4577521 6.01403521,21.9219549 0.669683099,19.4137606 C0.354978873,19.2195296 0.292225352,19.0635845 0.292225352,18.7778408 L0.292225352,17.1660972 C0.292225352,16.8747507 0.389633803,16.5918085 0.929126761,16.5918085 C1.21666901,16.5918085 1.4011831,16.7552239 1.81797887,17.0391 C6.23976056,20.1122451 10.0508662,18.2726535 10.0508662,15.6383958 C10.0508662,11.2999479 0.13206338,12.6287493 0.13206338,6.22192817 C0.13206338,3.27764789 2.42209859,0.676073239 6.65374648,0.676073239 C8.75083803,0.676073239 10.6540493,1.08507887 11.7414648,1.49595211 C12.0280704,1.62761831 12.0880141,1.78729859 12.0880141,2.06650563 L12.0880141,3.90983239 C12.0880141,4.19650986 11.9924789,4.41782113 11.6487394,4.41782113 C11.3602606,4.41782113 11.1345352,4.25720704 10.7861127,4.00508028 C9.51792958,3.08715211 8.3031338,2.54834789 6.71369014,2.54834789 C4.93692254,2.54834789 3.53480282,3.52790704 3.53480282,4.99304366 Z" id="Clip-35"></path>
            </g>
        </g>
    </g>
</svg>