<?xml version="1.0" encoding="UTF-8"?>
<svg width="263px" height="140px" viewBox="0 0 263 140" version="1.1" xmlns="http://www.w3.org/2000/svg" xmlns:xlink="http://www.w3.org/1999/xlink">
    <!-- Generator: Sketch 46.2 (44496) - http://www.bohemiancoding.com/sketch -->
    <title>Logo JLR</title>
    <desc>Created with Sketch.</desc>
    <defs>
        <polygon id="path-1" points="102.866057 0 0.278776681 0 0.278776681 54.1199337 102.866057 54.1199337"></polygon>
        <polygon id="path-3" points="2.66030549e-20 0.193875789 2.66030549e-20 8.3213076 99.5938317 8.3213076 99.5938317 0.193875789 0 0.193875789"></polygon>
    </defs>
    <g id="Desktop---1440px" stroke="none" stroke-width="1" fill="none" fill-rule="evenodd">
        <g id="06.-Studio" transform="translate(-150.000000, -4468.000000)">
            <g id="Logo-Grid" transform="translate(150.000000, 4468.000000)">
                <g id="Logo-JLR">
                    <g id="JLR" transform="translate(16.000000, 43.000000)">
                        <g id="Group-3" transform="translate(126.843747, 0.000000)">
                            <mask id="mask-2" fill="white">
                                <use xlink:href="#path-1"></use>
                            </mask>
                            <g id="Clip-2"></g>
                            <path d="M46.3019884,33.8686214 C45.8824891,35.0719763 45.5534636,35.8472616 45.0682242,36.3578153 C44.6871275,36.7581729 44.1833377,37.0470302 43.0227988,37.0470302 C42.1122021,37.0470302 41.6061342,36.6743847 41.6061342,35.9688685 C41.6012525,35.5127608 41.7229692,34.8225678 42.2108121,33.4786965 C42.6312878,32.2766457 42.9590115,31.5013604 43.4465289,30.9895026 C43.8230695,30.589145 44.3294628,30.3002877 45.4886999,30.3002877 C46.3992967,30.3002877 46.9043882,30.6729332 46.9030864,31.3748631 C46.9125243,31.8355351 46.7895059,32.5260542 46.3019884,33.8686214 L46.3019884,33.8686214 Z M46.107372,27.3820461 L45.7191154,27.3820461 C43.4175643,27.3820461 42.1030896,28.0041 41.0235866,29.1517048 C39.6807982,30.574474 38.4183948,34.418624 38.4437795,36.4539924 C38.4691643,38.5288097 39.8083728,39.9665759 42.6231516,39.9665759 L43.0354912,39.9665759 C45.3438766,39.9665759 46.6586768,39.3432179 47.7385052,38.1956131 C49.0809682,36.7708878 50.3144069,32.9277158 50.2899985,30.8956077 C50.2636374,28.8211164 48.9244289,27.3820461 46.107372,27.3820461 L46.107372,27.3820461 Z M26.0748949,29.1099737 L16.8556726,32.1465621 L15.7309327,35.2424869 L23.8602378,35.2424869 L24.9189122,32.3265274 L19.2825203,32.3265274 L25.6811058,30.1565111 L26.0748949,29.1099737 Z M59.6136889,27.5326692 L55.1414157,36.3297772 L55.047362,36.3297772 L54.8215027,27.5326692 L51.0814822,27.5326692 L50.9353571,27.8495646 L51.2572228,28.044527 C51.5667215,28.2639412 51.6523137,28.4856376 51.6929944,29.0959547 L52.1990623,39.7716135 L56.3680201,39.7716135 L63.093353,27.5326692 L59.6136889,27.5326692 Z M34.8065997,31.9747474 C34.595711,32.4980161 34.3639938,32.6235354 34.0616548,32.7477505 C33.8566241,32.8279525 33.4270359,32.8566426 33.0111165,32.8566426 L31.4021136,32.8566426 L32.2769113,30.3270217 L34.221774,30.3270217 C34.8043216,30.3270217 35.0415715,30.629898 35.0497076,30.9758096 C35.0519857,31.1962019 34.951423,31.5988416 34.8065997,31.9747474 L34.8065997,31.9747474 Z M34.5169532,27.5326692 L29.2418058,27.5326692 L29.1353851,27.8495646 L29.348552,28.058546 C29.5744112,28.2825246 29.5649733,28.5436699 29.3680787,29.1099737 L25.6824075,39.7716135 L29.0507693,39.7716135 L30.4918423,35.5394948 L31.6315527,35.5407989 L32.8988378,39.7716135 L36.2834718,39.7716135 L34.6907411,35.4423396 C35.6150066,35.2913905 36.0797428,35.027963 36.5428519,34.6135864 C37.1777962,34.0322854 37.6177986,33.2152691 37.9816468,32.0145224 C38.5130994,30.2712715 38.1925355,29.2746159 37.8508177,28.7627581 C37.3805488,28.058546 36.3898925,27.5326692 34.5169532,27.5326692 L34.5169532,27.5326692 Z M69.8557866,34.8629948 L70.7904663,32.3033797 L66.4965374,32.3033797 L67.1614227,30.3491913 L71.8133418,30.3491913 L72.8349154,27.5248446 L64.0534174,27.5248446 L63.9320262,27.8844492 L64.1406368,28.0911485 C64.3674724,28.3115407 64.3580345,28.5736641 64.1624417,29.1435542 L60.5044334,39.7670492 L68.7111945,39.7670492 L69.7015254,36.922815 L64.9129192,36.922815 L65.6184852,34.8629948 L69.8557866,34.8629948 Z M85.0368465,41.4460733 C75.079839,46.5982319 62.6959839,48.5556806 51.5712778,48.5556806 C40.4475479,48.5556806 28.0662964,46.5982319 18.1066854,41.4460733 C12.8360943,38.7169256 5.8328309,33.6863739 5.8328309,27.0605863 C5.8328309,20.4299084 12.8351179,15.4055511 18.1066854,12.6773815 C28.0662964,7.52522284 40.4465716,5.56647011 51.5712778,5.56647011 C62.6959839,5.56647011 75.079839,7.52163657 85.0368465,12.6773815 C90.3110175,15.4055511 97.3129791,20.4289303 97.3129791,27.0605863 C97.3129791,33.6899602 90.3084139,38.7169256 85.0368465,41.4460733 L85.0368465,41.4460733 Z M85.553654,11.6722493 C75.4446635,6.4366284 62.8570795,4.43255832 51.5712778,4.43255832 C40.285476,4.43255832 27.7011465,6.4379325 17.5889015,11.6722493 C11.9095507,14.6107044 4.70223297,19.9125081 4.70223297,27.0605863 C4.70223297,34.2050782 11.9108525,39.5094902 17.5889015,42.4508795 C27.7011465,47.682262 40.2877542,49.6873102 51.5712778,49.6873102 C62.8570795,49.6873102 75.4446635,47.6855223 85.553654,42.4508795 C91.2339811,39.5094902 98.4412989,34.2050782 98.4412989,27.0605863 C98.4412989,19.9125081 91.2365847,14.6107044 85.553654,11.6722493 L85.553654,11.6722493 Z M79.7096278,31.9747474 C79.5000409,32.4980161 79.2650692,32.6235354 78.9672864,32.7477505 C78.7586758,32.8279525 78.3336439,32.8566426 77.9190262,32.8566426 L76.3100233,32.8566426 L77.1799393,30.3270217 L79.1270802,30.3270217 C79.7050716,30.3270217 79.9459013,30.629898 79.9517593,30.9758096 C79.9576173,31.1962019 79.8534748,31.5988416 79.7096278,31.9747474 L79.7096278,31.9747474 Z M79.4167268,27.5326692 L74.1415794,27.5326692 L74.039715,27.8495646 L74.25158,28.058546 C74.4774393,28.2825246 74.4660487,28.5436699 74.2737103,29.1099737 L70.5831575,39.7716135 L73.9560755,39.7716135 L75.3948703,35.5407989 L76.5345808,35.5407989 L77.8031676,39.7716135 L81.1832454,39.7716135 L79.5973491,35.4423396 C80.5180346,35.2913905 80.9814691,35.027963 81.4436018,34.6135864 C82.0808243,34.0322854 82.5221285,33.2152691 82.8846749,32.0145224 C83.4177547,30.2712715 83.0968654,29.2746159 82.7561239,28.7627581 C82.285855,28.058546 81.2942223,27.5326692 79.4167268,27.5326692 L79.4167268,27.5326692 Z M86.3330962,43.9571108 C77.0790512,48.7473827 64.7358768,51.3858957 51.5712778,51.3858957 C38.4102586,51.3858957 26.0680606,48.7473827 16.8130392,43.9571108 C7.91340448,39.3494123 3.00763785,33.3476349 3.00763785,27.0605863 C3.00763785,20.7699515 7.91340448,14.7685 16.8130392,10.1640618 C26.0680606,5.37607204 38.4102586,2.73397281 51.5712778,2.73397281 C64.7358768,2.73397281 77.0790512,5.37607204 86.3330962,10.1640618 C95.2363109,14.7685 100.135894,20.7699515 100.135894,27.0605863 C100.135894,33.3476349 95.2363109,39.3494123 86.3330962,43.9571108 L86.3330962,43.9571108 Z M87.5854108,7.73420428 C77.9489672,2.74668775 65.1586306,-6.5204818e-05 51.5712778,-6.5204818e-05 C37.9849013,-6.5204818e-05 25.1945646,2.74668775 15.5594229,7.73420428 C9.85240923,10.6896127 0.278776681,17.1311966 0.278776681,27.0605863 C0.278776681,36.9876938 9.85240923,43.43156 15.5594229,46.3859903 C25.1922865,51.3722027 37.9816468,54.1199337 51.5712778,54.1199337 C65.1622105,54.1199337 77.9515708,51.3722027 87.5854108,46.3859903 C93.2937262,43.43156 102.866057,36.9912801 102.866057,27.0605863 C102.866057,17.1285884 93.2937262,10.6896127 87.5854108,7.73420428 L87.5854108,7.73420428 Z M80.1336834,17.0359976 L72.0043783,17.0359976 L70.9470056,19.9496749 L76.5788414,19.9496749 L70.1812322,22.1252336 L69.7861413,23.1685107 L79.0053636,20.1306183 L80.1336834,17.0359976 Z M21.8356408,24.8847015 L30.1719293,24.8837235 L31.1798342,21.9651558 L26.3346005,21.9651558 L29.5360086,12.6473873 L25.3543584,12.6473873 L25.2502158,12.9626526 L25.4598028,13.170656 C25.685662,13.3946345 25.6775259,13.6567579 25.4806313,14.2243658 L21.8356408,24.8847015 Z M43.7999628,24.8801372 L46.8650093,24.8801372 L49.5362666,16.9629682 L51.0997071,24.8801372 L54.1660553,24.8801372 L58.345102,12.642497 L55.1414157,12.6473873 L52.9078827,19.2995828 L51.632787,12.6473873 L47.3131478,12.6473873 L47.2090052,12.9626526 L47.419894,13.170656 C47.6467295,13.3946345 47.6350135,13.6567579 47.4430006,14.2243658 L43.7999628,24.8801372 Z M62.7561914,15.5493277 L64.09182,15.5493277 C65.001115,15.5493277 65.5026266,15.8544863 65.515319,16.5613065 C65.5224788,17.0161101 65.4007621,17.6381641 64.9282151,18.9817094 C64.5109939,20.181804 64.178714,20.8768874 63.7048652,21.3874411 C63.3260466,21.7877987 62.8199787,21.9651558 61.6591143,21.9651558 L60.5438123,21.9651558 L62.7561914,15.5493277 Z M59.8255539,14.2243658 L56.1792617,24.8847015 L61.5608298,24.8847015 C63.8669371,24.8847015 65.183039,24.3741478 66.2534295,23.2252389 C67.5923126,21.8060561 68.8179407,18.1092689 68.77726,16.0761827 C68.7378811,14.0003873 67.3999743,12.6473873 64.5864973,12.6473873 L59.6960266,12.6473873 L59.5938367,12.9626526 L59.8060272,13.170656 C60.0305847,13.3946345 60.0224485,13.6567579 59.8255539,14.2243658 L59.8255539,14.2243658 Z M39.5707976,16.0298872 L39.6807982,16.0298872 L39.7387275,19.7270004 L37.4892476,19.7270004 L39.5707976,16.0298872 Z M31.0372891,24.8801372 L34.5830186,24.8801372 L36.1191218,22.1764194 L39.7907988,22.1764194 L39.8269232,24.8801372 L43.0459054,24.8801372 L42.3520555,12.6473873 L37.5331828,12.6473873 L37.4267621,12.9626526 L37.582976,13.1184921 C37.8368235,13.3665965 37.7313791,13.7265271 36.7944213,15.2164571 L31.0372891,24.8801372 L31.0372891,24.8801372 Z" id="Fill-1" fill="#FFFFFF" mask="url(#mask-2)"></path>
                        </g>
                        <path d="M12.9124371,9.35113391 C12.9124371,9.35113391 12.9811298,9.15033387 12.9984666,9.09980576 C13.0184202,9.05223058 13.2091244,8.52791937 13.684413,8.47739125 C13.684413,8.47739125 13.9578757,8.46131413 14.3818082,8.46131413 C14.3818082,8.46131413 14.1744215,9.12933517 13.3605756,9.2727169 C13.3605756,9.2727169 13.0406636,9.34522803 12.9124371,9.35113391 M94.7670748,30.9391068 C94.5992682,31.5218207 93.7716838,32.2997568 92.7645169,32.7469634 C91.706321,33.2220589 89.4986661,33.3460825 88.2239244,33.1370798 C88.2203262,33.1370798 85.7519659,32.8847674 83.5901061,30.6192048 C82.9067766,29.9032805 82.0683976,29.092862 81.2928234,28.2919586 C80.9516493,27.9333402 80.1135975,27.0910956 78.7197884,26.9053884 C77.2670997,26.7081975 73.7205899,26.6110785 72.3863145,26.1684654 C71.4933084,25.869562 70.4200656,25.2635528 68.9879848,23.1394033 C68.2997486,22.1209665 67.8107215,21.8417495 66.8735558,21.2462396 C66.8735558,21.2462396 67.5918859,21.8174697 67.9994631,22.5415967 C68.5862956,23.5912034 68.882983,24.3563434 69.2022408,24.9144494 C69.52248,25.4761646 69.884262,25.9735712 70.4305331,26.4138876 C71.1079747,26.96051 71.5305988,27.0645191 72.2665928,27.1855898 C72.9685676,27.3037074 75.3423936,27.2813963 77.3809335,27.2502264 C79.3847998,27.2187283 80.2778059,27.8690317 80.9366023,28.424841 C81.5469867,28.9386529 82.5898085,30.4115146 83.233885,31.0572245 C83.9986646,31.820724 84.5586742,32.6019412 86.072205,33.3680655 C86.5985225,33.6344865 87.4588178,34.2920082 87.4146581,34.924922 C86.7345997,35.6080359 85.8893514,35.7878372 83.8625874,35.2438397 C84.0058609,35.3862371 85.067655,36.5024491 86.8814714,35.9748569 C86.3342189,36.4335472 85.7987424,36.6287694 85.2374243,36.5982557 C83.3385597,36.4919498 81.4779668,34.1446892 80.434818,33.2794772 C79.6409258,32.6206431 79.5499896,32.4559346 78.2042654,31.5218207 C76.1585292,30.0994871 71.5691976,30.5001028 71.5691976,30.5001028 L68.2019432,30.676295 C61.6437458,31.1740298 58.8914553,25.3475476 58.1649474,24.1319199 C57.9111113,23.7093211 57.684098,23.3694047 57.4662438,23.0915001 C57.1309576,22.6452777 55.340366,20.3134381 53.5288393,19.5473137 C53.5288393,19.5473137 55.3079822,21.0841559 55.2029804,22.1012802 C55.2029804,22.1012802 54.4660051,21.7567704 52.4588676,22.0451744 C43.8189521,23.279504 40.8792284,21.1107323 40.8792284,21.1107323 C41.2809176,19.3744026 40.0722518,17.5934506 40.0722518,17.5934506 C40.7382446,17.80475 44.9854208,19.2434888 49.0196493,18.422571 C49.0196493,18.422571 42.455564,18.4576782 37.8521668,14.7743755 C37.8521668,14.7743755 40.7173097,18.3736834 40.0362699,20.7314434 C40.0362699,20.7314434 39.5671964,23.2434125 34.5735588,22.2308816 C34.040372,22.1245757 33.4139593,21.9457586 25.9392041,19.8659033 C24.1826317,19.3392954 23.5771539,20.1812119 23.2592045,20.6858368 C23.2451388,21.4273533 22.3756846,22.2915809 21.936705,22.5625954 C19.6243754,22.144262 20.5451857,19.9922236 20.5451857,19.9922236 C19.0888988,22.0802815 20.6138785,23.0038961 21.0970176,23.069517 C20.808508,23.2092896 20.5347182,23.3096896 20.3031254,23.3976217 C20.3031254,23.3976217 18.4124386,22.2682855 19.4696531,20.4171191 C20.9436038,17.8388729 22.4420876,17.0107367 25.194051,16.7597367 C26.3958475,16.6442439 27.3994162,16.5576242 28.1632144,16.6626177 C30.158576,16.939538 31.4078032,18.0698585 34.3975744,18.3605592 C28.0549415,16.4874098 28.0408759,12.8031228 28.0186325,12.7332365 C28.0176512,12.7332365 28.0163427,12.7250339 28.0163427,12.7250339 C27.6647011,13.9416459 27.8580222,14.9646762 28.1677939,15.8312006 C28.080456,15.7997025 26.6938433,14.8852749 26.1639276,14.5630761 C23.8879069,13.167319 22.0891376,12.9245216 22.0891376,12.9245216 C21.3348255,12.828715 20.9831839,11.9073972 20.9831839,11.9073972 C20.956361,11.8604782 20.9295381,11.8174965 20.9027152,11.7732024 C19.8526971,9.97453273 18.8141277,9.9374569 18.8141277,9.9374569 C19.3986706,10.7360636 19.4101193,11.87229 19.4101193,11.87229 C19.7208724,14.1086512 17.198212,14.7976709 17.198212,14.7976709 C15.6519703,16.7656426 15.7334203,16.80764 15.3899565,16.85784 C15.0428944,16.9067276 14.2895636,16.5202203 14.2895636,16.5202203 C14.1662437,16.3371379 14.3409197,16.1533993 14.3409197,16.1533993 C14.6307378,15.923398 14.8672372,15.6933966 14.8672372,15.6933966 C16.5017981,14.0177662 16.697409,13.1978327 16.4959101,12.1104939 C16.0827722,9.9302386 14.5296612,10.1838635 14.5296612,10.1838635 C13.7972654,10.2268452 13.4688485,10.8820702 13.4688485,10.8820702 C13.2091244,11.2839983 12.6586009,12.5134064 12.6586009,12.5134064 C12.321025,13.2470484 11.9775611,13.4114288 11.7983057,13.4455517 C11.7201267,13.4593321 11.5781617,13.4560511 11.5304038,13.4547387 C11.0040863,13.4347243 10.6046869,12.9491294 10.6046869,12.9491294 C10.5804809,12.9245216 10.5572562,12.8989294 10.5395923,12.8779307 C10.0587429,12.3591973 10.4067863,11.684286 10.4067863,11.684286 C11.0541339,10.169755 12.3128473,9.95025299 12.4829437,9.92794187 C12.6586009,9.90563075 13.2372557,9.82163597 13.2372557,9.82163597 C14.8358347,9.55062153 15.5914553,7.88188133 15.5914553,7.88188133 C14.5133058,7.87039767 13.9869883,7.94028396 13.9869883,7.94028396 C12.9261756,8.1273036 12.5666834,9.37902281 12.5666834,9.37803849 C11.6687707,9.583432 11.6923225,8.80910504 11.8493346,8.57319781 C11.9903183,8.35500822 12.5176171,7.42647209 15.9640318,6.62655298 C15.9640318,6.62655298 17.662706,6.11503784 21.2949182,6.27843395 L21.1460839,6.557651 C20.8258447,7.16726942 19.5511031,8.4239102 17.4448518,7.9576735 C17.4448518,7.9576735 17.4648054,8.89670898 19.7476953,9.23301624 C19.7476953,9.23301624 21.813058,9.60213396 25.3154082,12.4261306 C25.3154082,12.4261306 23.6409401,9.08832209 20.7980405,8.22409447 C20.7980405,8.22409447 20.4428007,8.14797419 20.6161682,7.92519114 C20.6161682,7.92519114 22.3707779,6.2889333 24.6307702,6.2249529 C24.6307702,6.2249529 32.2867436,5.48573314 36.5365366,11.3515879 C36.5365366,11.3515879 35.255907,8.86160179 34.2860304,7.77459111 C34.2860304,7.77459111 38.7301259,9.03352862 45.5653841,11.4168807 C45.5653841,11.4168807 50.2292964,13.0774183 53.2144881,14.2569545 C57.2428287,15.8499025 67.3171148,19.7809242 73.7438146,23.2945968 C74.8906568,23.9206205 86.5147828,30.0003995 86.5147828,30.0003995 C89.7328757,31.450622 91.9598301,30.5690048 91.9598301,30.5690048 C92.6840482,30.2920845 93.9986971,29.280866 94.5737537,29.8517681 C94.8704411,30.1496871 94.9103483,30.5480061 94.7670748,30.9391068 M95.4667598,29.5213667 C94.9950694,28.4704475 93.6971031,28.8113483 93.6971031,28.8113483 C93.0834476,28.9412777 92.3824542,29.6453902 91.3429035,29.9547929 C89.1087528,30.6178924 87.323722,29.8471746 87.323722,29.8471746 C83.8845037,28.3546266 72.8266025,22.0041613 67.202954,19.2306927 C67.202954,19.2306927 60.6692898,16.1967091 51.187397,12.4317084 C51.187397,12.4317084 32.5615147,4.45679699 20.1274682,5.11202195 C20.1274682,5.11202195 13.4979612,5.28821415 11.4116635,8.22081342 C11.4116635,8.22081342 11.0577321,8.62471024 11.2592309,9.06141751 C11.2592309,9.06141751 11.2988111,9.1874097 11.2160526,9.27042017 C11.2160526,9.27042017 10.0996315,10.2737642 9.53144409,11.1658807 C9.33125372,11.4907043 9.14022238,12.0100939 9.51966818,12.4153032 C9.51966818,12.4153032 9.70481157,12.559013 9.78168205,12.6853333 C9.94360074,12.9501137 10.0937435,13.3448236 10.2939339,13.5810589 C10.5840791,13.9278655 11.1696032,14.5279689 11.9948978,14.3842591 C12.3638762,14.3202787 12.366493,14.2162695 12.366493,14.2162695 C12.779631,14.6273846 13.4502033,14.6155729 13.4502033,14.6155729 C13.3654823,14.3517767 13.0776268,13.8343557 13.0370654,13.5223282 C12.9929057,13.1781464 13.0930009,12.8497137 13.0930009,12.8497137 C13.2091244,12.458613 13.4410443,11.9680965 13.6958618,11.7193932 C13.919604,11.4962821 14.4923709,11.2416729 14.9532667,11.5615749 C15.3212637,11.8234024 15.7602432,12.6745058 15.394536,13.8914459 C15.3781806,13.982659 14.9755101,14.8468866 14.5433998,14.976488 C14.5433998,14.976488 14.5028383,14.9902684 14.4200799,14.9902684 C14.1302618,14.9902684 13.5888973,14.6854592 13.5888973,14.6854592 C13.5888973,14.6854592 13.5748317,14.7625637 13.6517022,15.0782004 C13.7004413,15.2576737 13.7635732,15.4542083 13.8146022,15.6080894 C13.8146022,15.6080894 13.7112359,15.7964215 13.642216,15.9060084 C13.5502985,16.0251104 13.4502033,16.4526308 13.6739455,16.6160269 C13.6739455,16.6160269 14.6307378,17.2699394 15.5600529,17.3260453 C16.2015125,17.365746 16.4435728,16.9313354 16.4435728,16.9313354 C16.9139547,16.2797196 17.2701759,15.7248947 17.7660723,15.2717822 C19.1248808,14.023344 21.0332315,13.6883492 21.0332315,13.6883492 C21.1601496,13.6709596 23.2428491,13.0902144 26.7844523,15.9306163 C25.7727059,16.0132986 24.5689467,16.2551118 23.6491178,16.4175236 C21.0260351,16.8880256 19.3414266,19.3707934 18.8523994,20.3797152 C17.5776578,23.0166922 20.1843851,23.9252139 20.1843851,23.9252139 C20.2089182,23.9009342 22.6687737,23.7057119 23.8574859,21.0828434 C23.8574859,21.0828434 24.2918859,19.9210249 25.4469058,20.2980171 C26.2025264,20.542127 32.876193,22.8838098 34.3802377,23.2781916 C34.3802377,23.2781916 38.8485391,24.4472284 40.531185,22.3850908 C43.2203436,23.269989 45.7459479,23.6988217 52.3587724,22.8414843 C53.5079044,22.6921967 54.4100695,22.7273039 54.4100695,22.7273039 C55.9550027,22.8427967 57.3661486,23.8868257 57.7936793,24.5699396 C59.5319337,27.3621101 61.7379531,32.9093752 69.398833,32.2331515 L72.861276,31.9188273 C74.9770135,31.7928351 76.6966226,31.7101528 78.4440359,32.6301582 C79.204236,33.0317582 79.6258788,33.1790772 80.9146861,34.4120945 C82.6794362,36.097568 84.3038567,37.919205 86.4634268,36.925376 C87.2295147,36.5703668 88.0911184,35.1982332 88.0911184,35.1982332 C88.0073786,34.5708971 87.7290094,33.968497 87.04339,33.4533727 C89.0050594,33.921578 93.4305097,34.2240905 95.1429224,31.221933 C95.5855002,30.5211015 95.6342393,29.8977027 95.4667598,29.5213667 M18.3869241,7.30146422 C18.4716452,7.30507337 18.5671609,7.30638579 18.6803404,7.30835442 C19.1399278,7.31688514 19.6580676,7.12625634 20.0028399,6.96515696 C20.2484983,6.85064844 20.4081272,6.75024842 20.3868652,6.75024842 C20.0679344,6.74696738 19.5566639,6.74106149 19.366941,6.74106149 C18.5380482,6.74106149 18.1016855,7.21287597 18.0990687,7.25618578 C18.0957976,7.28407468 18.2099584,7.29457402 18.3869241,7.30146422" id="Fill-4" fill="#FFFFFF"></path>
                        <g id="Group-8" transform="translate(0.000000, 41.435624)">
                            <mask id="mask-4" fill="white">
                                <use xlink:href="#path-3"></use>
                            </mask>
                            <g id="Clip-7"></g>
                            <path d="M64.2180394,0.194851511 L64.2180394,4.11334759 C64.2180394,5.12842281 64.1061507,5.93079082 63.5915283,6.60111124 C62.7543263,7.69391891 61.2196195,8.3213076 56.9377517,8.3213076 L56.8935851,8.3213076 C52.6352728,8.3213076 51.0910784,7.69391891 50.255185,6.60208696 C49.7415441,5.93079082 49.6296554,5.12972377 49.6296554,4.11432331 L49.6296554,0.194851511 L52.5757297,0.194851511 L52.5757297,4.00341634 C52.5757297,5.02564685 52.705285,5.62506486 53.0825003,6.15293 C53.7191533,7.0453896 54.8210276,7.36867853 56.7980544,7.36867853 L57.0496403,7.36867853 C59.1189263,7.36867853 60.1285415,7.0453896 60.7655217,6.15195428 C61.1414283,5.62408914 61.2706565,4.99767618 61.2706565,4.00569302 L61.2706565,0.194851511 L64.2180394,0.194851511 Z M93.5237083,1.1855337 C94.628527,1.1855337 95.117631,1.28765918 95.4529698,1.53744379 C95.7719506,1.77617023 95.8861294,2.13946373 95.8861294,2.70343055 L95.8861294,2.8504392 C95.8861294,3.36074135 95.7650803,3.77412187 95.3891736,4.03333845 C95.0188287,4.28800167 94.5006075,4.34491874 93.5596959,4.34491874 L87.7189114,4.34491874 L87.7189114,1.1855337 L93.5237083,1.1855337 Z M94.9569955,5.28258675 C96.0644315,5.24648506 97.0027259,5.07898627 97.7260763,4.69227546 C98.4772353,4.28930263 98.8344938,3.53214303 98.8344938,2.74603704 C98.8344938,1.69388441 98.3617478,1.02128731 97.5000088,0.644984194 C96.7351092,0.310637085 95.7905987,0.195827232 93.9077939,0.195827232 L84.7728371,0.195827232 L84.7728371,8.06176578 L87.7189114,8.06176578 L87.7189114,5.33462521 L91.5895394,5.33462521 L96.0048884,8.06176578 L99.5938317,8.06176578 L94.9569955,5.28258675 Z M43.4466618,7.01091412 L43.4466618,4.44899566 L46.3786682,4.44899566 L46.3786682,8.06079006 L37.8515744,8.06079006 C36.2537258,8.06079006 34.9938333,7.87572828 34.0424525,7.49454656 C32.4589989,6.86032782 31.7346671,5.69921967 31.7346671,4.11204663 C31.7346671,2.61431468 32.5227951,1.57582216 33.5278301,1.01543298 C34.5946983,0.422845016 35.7973378,0.193875789 37.8002103,0.193875789 L46.0783355,0.193875789 L46.0783355,1.24472745 L38.7178936,1.24472745 C37.1409832,1.24472745 36.2805529,1.48085197 35.6262332,2.01001806 C35.0438887,2.48096613 34.7343955,3.18381059 34.7343955,4.12733292 C34.7343955,5.10077738 35.0602467,5.82183529 35.6821776,6.2931086 C36.3387873,6.7884497 37.2237547,7.00961315 38.7421034,7.00961315 L43.4466618,7.01091412 Z M12.6363848,0.194851511 L12.6363848,4.03106177 C12.6363848,5.27087809 12.35012,6.02348433 11.7573064,6.62778095 C10.7211912,7.68123454 8.73565819,8.06176578 5.92470093,8.06176578 L-0.000163579915,8.06176578 L-0.000163579915,7.00505979 L5.4542451,7.00505979 C7.12864911,7.00505979 8.25931348,6.72958119 8.94176888,6.06056173 C9.45769993,5.55351198 9.69063773,4.84611416 9.69063773,3.79493726 L9.69063773,0.194851511 L12.6363848,0.194851511 Z M77.4019262,6.38580211 L68.6719933,6.38580211 L67.2246382,8.06176578 L65.5175182,8.06176578 L72.3819858,0.194851511 L75.2858564,0.194851511 L82.1571943,8.06176578 L78.85288,8.06176578 L77.4019262,6.38580211 Z M69.5500903,5.36812497 L76.5202304,5.36812497 L73.0294351,1.34067336 L69.5500903,5.36812497 Z M25.8657469,6.38580211 L17.135814,6.38580211 L15.6884589,8.06176578 L13.9816661,8.06176578 L20.8471151,0.194851511 L23.7500043,0.194851511 L30.6213422,8.06176578 L27.3180094,8.06176578 L25.8657469,6.38580211 Z M18.013911,5.36812497 L24.9856869,5.36812497 L21.4945644,1.34067336 L18.013911,5.36812497 Z" id="Fill-6" fill="#FFFFFF" mask="url(#mask-4)"></path>
                        </g>
                    </g>
                </g>
            </g>
        </g>
    </g>
</svg>