<?xml version="1.0" encoding="UTF-8"?>
<svg width="263px" height="140px" viewBox="0 0 263 140" version="1.1" xmlns="http://www.w3.org/2000/svg" xmlns:xlink="http://www.w3.org/1999/xlink">
    <!-- Generator: Sketch 46.2 (44496) - http://www.bohemiancoding.com/sketch -->
    <title>Logo HH</title>
    <desc>Created with Sketch.</desc>
    <defs>
        <polygon id="path-1" points="0 80 82.7625 80 82.7625 0 0 0"></polygon>
    </defs>
    <g id="Desktop---1440px" stroke="none" stroke-width="1" fill="none" fill-rule="evenodd">
        <g id="06.-Studio" transform="translate(-442.000000, -4936.000000)">
            <g id="Logo-Grid" transform="translate(150.000000, 4468.000000)">
                <g id="Logo-HH" transform="translate(292.000000, 468.000000)">
                    <g id="HH" transform="translate(90.000000, 30.000000)">
                        <polygon id="Fill-1" fill="#FFFFFF" points="8.1225 66.231125 8.1225 71.823625 1.3325 71.823625 1.3325 66.231125 0.00125 66.231125 0.00125 79.566125 1.3325 79.566125 1.3325 73.129875 8.1225 73.129875 8.1225 79.566125 9.455 79.566125 9.455 66.231125"></polygon>
                        <g id="Group-21">
                            <path d="M22.106375,74.66125 C22.106375,76.04 21.626375,77.2425 20.667625,78.27375 C19.707625,79.30375 18.473875,79.81875 16.966375,79.81875 C15.452625,79.81875 14.216375,79.30375 13.256375,78.27375 C12.297625,77.2425 11.817625,76.04 11.817625,74.66125 C11.817625,73.29625 12.271375,72.11 13.178875,71.1075 C14.177625,70.00125 15.441375,69.44875 16.966375,69.44875 C18.486375,69.44875 19.745125,70 20.743875,71.09875 C21.652625,72.1025 22.106375,73.29 22.106375,74.66125 Z M20.818875,74.6875 C20.818875,73.5825 20.438875,72.64 19.677625,71.86 C18.915125,71.08125 18.011375,70.69125 16.962625,70.69125 C15.907625,70.69125 15.000125,71.08125 14.242625,71.86 C13.483875,72.64 13.105125,73.5825 13.105125,74.6875 C13.105125,75.40125 13.278875,76.06625 13.623875,76.68375 C13.968875,77.29875 14.436375,77.775 15.025125,78.11 C15.612625,78.44625 16.257625,78.61375 16.962625,78.61375 C17.665125,78.61375 18.311375,78.44625 18.900125,78.11 C19.487625,77.775 19.953875,77.29875 20.301375,76.68375 C20.646375,76.06625 20.818875,75.40125 20.818875,74.6875 Z" id="Fill-2" fill="#FFFFFF"></path>
                            <path d="M23.985,79.565375 L25.28,79.565375 L25.28,76.229125 C25.28,74.519125 25.36,73.382875 25.5175,72.821625 C25.7225,72.090375 26.02125,71.550375 26.41375,71.202875 C26.8075,70.856625 27.215,70.681625 27.6375,70.681625 C27.81875,70.681625 28.0425,70.739125 28.30875,70.854125 L28.97,69.784125 C28.57125,69.560375 28.19625,69.449125 27.84625,69.449125 C27.38125,69.449125 26.93375,69.590375 26.505,69.870375 C26.075,70.151625 25.6675,70.576625 25.28,71.144125 L25.28,69.702875 L23.985,69.702875 L23.985,79.565375 Z" id="Fill-4" fill="#FFFFFF"></path>
                            <path d="M29.9555,65.95025 C29.75175,66.1565 29.64925,66.404 29.64925,66.694 C29.64925,66.97775 29.75175,67.22275 29.9555,67.42775 C30.1605,67.63275 30.40425,67.7365 30.68675,67.7365 C30.9755,67.7365 31.223,67.63275 31.428,67.42775 C31.63175,67.22275 31.73425,66.97775 31.73425,66.694 C31.73425,66.404 31.63175,66.1565 31.428,65.95025 C31.223,65.74525 30.9755,65.6415 30.68675,65.6415 C30.40425,65.6415 30.1605,65.74525 29.9555,65.95025" id="Fill-6" fill="#FFFFFF"></path>
                            <mask id="mask-2" fill="white">
                                <use xlink:href="#path-1"></use>
                            </mask>
                            <g id="Clip-9"></g>
                            <polygon id="Fill-8" fill="#FFFFFF" mask="url(#mask-2)" points="30.0575 79.565 31.32625 79.565 31.32625 69.7025 30.0575 69.7025"></polygon>
                            <polygon id="Fill-10" fill="#FFFFFF" mask="url(#mask-2)" points="33.14025 69.70275 33.14025 70.81775 38.194 70.81775 32.61525 79.56525 40.20025 79.56525 40.20025 78.4415 34.799 78.4415 40.38275 69.70275"></polygon>
                            <path d="M51.050375,74.66125 C51.050375,73.29 50.596625,72.1025 49.687875,71.09875 C48.689125,70 47.430375,69.44875 45.911625,69.44875 C44.385375,69.44875 43.122875,70.00125 42.124125,71.1075 C41.216625,72.11 40.762875,73.29625 40.762875,74.66125 C40.762875,76.04 41.241625,77.2425 42.201625,78.27375 C43.160375,79.30375 44.397875,79.81875 45.911625,79.81875 C47.419125,79.81875 48.651625,79.30375 49.612875,78.27375 C50.570375,77.2425 51.050375,76.04 51.050375,74.66125 M49.764125,74.6875 C49.764125,75.40125 49.590375,76.06625 49.245375,76.68375 C48.899125,77.29875 48.432875,77.775 47.845375,78.11 C47.256625,78.44625 46.610375,78.61375 45.907875,78.61375 C45.202875,78.61375 44.557875,78.44625 43.969125,78.11 C43.380375,77.775 42.912875,77.29875 42.569125,76.68375 C42.222875,76.06625 42.050375,75.40125 42.050375,74.6875 C42.050375,73.5825 42.429125,72.64 43.186625,71.86 C43.944125,71.08125 44.851625,70.69125 45.907875,70.69125 C46.956625,70.69125 47.860375,71.08125 48.622875,71.86 C49.382875,72.64 49.764125,73.5825 49.764125,74.6875" id="Fill-11" fill="#FFFFFF" mask="url(#mask-2)"></path>
                            <path d="M53.15975,79.565375 L54.4285,79.565375 L54.4285,75.947875 C54.4285,74.649125 54.48725,73.755375 54.6085,73.265375 C54.80225,72.516625 55.2035,71.887875 55.811,71.380375 C56.41725,70.871625 57.106,70.617875 57.8735,70.617875 C58.54475,70.617875 59.08725,70.782875 59.50475,71.112875 C59.92225,71.441625 60.20475,71.932875 60.351,72.585375 C60.44475,72.966625 60.49225,73.725375 60.49225,74.860375 L60.49225,79.565375 L61.76225,79.565375 L61.76225,74.489125 C61.76225,73.147875 61.62475,72.159125 61.3535,71.525375 C61.081,70.890375 60.661,70.386625 60.08975,70.010375 C59.51725,69.636625 58.8635,69.449125 58.12725,69.449125 C57.401,69.449125 56.72975,69.616625 56.1135,69.952875 C55.4985,70.287875 54.936,70.794125 54.4285,71.470375 L54.4285,69.702875 L53.15975,69.702875 L53.15975,79.565375 Z" id="Fill-12" fill="#FFFFFF" mask="url(#mask-2)"></path>
                            <path d="M66.480125,69.448875 C65.698875,69.448875 65.052625,69.697625 64.541375,70.192625 C64.030125,70.687625 63.773875,71.311375 63.773875,72.060125 C63.773875,72.633875 63.935125,73.145125 64.256375,73.591375 C64.576375,74.038875 65.182625,74.492625 66.072625,74.951375 C66.902625,75.373875 67.435125,75.725125 67.671375,76.002625 C67.907625,76.287625 68.025125,76.610125 68.025125,76.972625 C68.025125,77.413875 67.846375,77.797625 67.490125,78.123875 C67.131375,78.450125 66.698875,78.613875 66.190125,78.613875 C65.463875,78.613875 64.776375,78.247625 64.127625,77.517625 L63.328875,78.423875 C63.668875,78.857625 64.097625,79.200125 64.615125,79.447625 C65.131375,79.695125 65.675125,79.818875 66.245125,79.818875 C67.097625,79.818875 67.807625,79.537625 68.377625,78.976375 C68.947625,78.413875 69.230125,77.727625 69.230125,76.918875 C69.230125,76.345125 69.063875,75.827625 68.731375,75.367625 C68.392625,74.915125 67.751375,74.443875 66.806375,73.953875 C66.031375,73.555125 65.521375,73.208875 65.280125,72.911375 C65.037625,72.622625 64.916375,72.316375 64.916375,71.996375 C64.916375,71.633875 65.062625,71.316375 65.357625,71.043875 C65.650125,70.772625 66.003875,70.636375 66.415125,70.636375 C67.063875,70.636375 67.727625,70.965125 68.406375,71.625125 L69.221375,70.781375 C68.302625,69.892625 67.388875,69.448875 66.480125,69.448875" id="Fill-13" fill="#FFFFFF" mask="url(#mask-2)"></path>
                            <path d="M0.000625,61.03325 L1.331875,61.03325 L1.331875,54.59825 L8.121875,54.59825 L8.121875,61.03325 L9.454375,61.03325 L9.454375,47.6995 L8.121875,47.6995 L8.121875,53.292 L1.331875,53.292 L1.331875,47.6995 L0.000625,47.6995 L0.000625,61.03325 Z M12.164375,47.41825 C11.959375,47.62325 11.858125,47.872 11.858125,48.162 C11.858125,48.44575 11.959375,48.6895 12.164375,48.89575 C12.369375,49.102 12.613125,49.2045 12.895625,49.2045 C13.184375,49.2045 13.430625,49.102 13.635625,48.89575 C13.839375,48.6895 13.941875,48.44575 13.941875,48.162 C13.941875,47.872 13.839375,47.62325 13.635625,47.41825 C13.430625,47.21325 13.184375,47.11075 12.895625,47.11075 C12.613125,47.11075 12.369375,47.21325 12.164375,47.41825 L12.164375,47.41825 Z M12.265625,61.03325 L13.535625,61.03325 L13.535625,51.17075 L12.265625,51.17075 L12.265625,61.03325 Z M24.446875,52.8845 C23.854375,52.18325 23.238125,51.68075 22.600625,51.3745 C21.961875,51.0695 21.274375,50.917 20.535625,50.917 C19.646875,50.917 18.800625,51.147 17.999375,51.60575 C17.198125,52.06575 16.570625,52.6895 16.118125,53.47825 C15.663125,54.267 15.436875,55.11825 15.436875,56.03075 C15.436875,56.942 15.653125,57.77825 16.089375,58.54075 C16.525625,59.302 17.141875,59.90825 17.941875,60.35825 C18.739375,60.80825 19.593125,61.03325 20.499375,61.03325 C21.274375,61.03325 22.005625,60.872 22.694375,60.54825 C23.385625,60.22575 23.969375,59.76075 24.446875,59.157 L24.446875,59.6645 C24.446875,60.752 24.319375,61.5395 24.065625,62.027 C23.811875,62.51575 23.386875,62.92075 22.789375,63.24325 C22.194375,63.5645 21.464375,63.72575 20.599375,63.72575 C19.720625,63.72575 18.985625,63.56825 18.393125,63.2545 C17.800625,62.9395 17.316875,62.457 16.941875,61.8045 L15.563125,61.8045 C15.919375,62.5795 16.309375,63.1695 16.733125,63.572 C17.155625,63.97575 17.704375,64.29575 18.378125,64.53575 C19.051875,64.77575 19.811875,64.8945 20.656875,64.8945 C21.811875,64.8945 22.799375,64.65075 23.620625,64.16075 C24.444375,63.67075 25.021875,62.97325 25.353125,62.067 C25.595625,61.42575 25.715625,60.4145 25.715625,59.0295 L25.715625,51.17075 L24.446875,51.17075 L24.446875,52.8845 Z M22.633125,52.64825 C23.231875,52.987 23.694375,53.44825 24.020625,54.03075 C24.346875,54.6145 24.509375,55.27825 24.509375,56.02075 C24.509375,57.162 24.154375,58.0845 23.445625,58.78575 C22.734375,59.487 21.796875,59.83575 20.630625,59.83575 C19.475625,59.83575 18.536875,59.48325 17.810625,58.77575 C17.085625,58.0695 16.723125,57.17575 16.723125,56.09325 C16.723125,55.38075 16.899375,54.717 17.249375,54.1045 C17.600625,53.49075 18.084375,53.0095 18.699375,52.662 C19.315625,52.3145 19.983125,52.14075 20.703125,52.14075 C21.391875,52.14075 22.035625,52.3095 22.633125,52.64825 L22.633125,52.64825 Z M28.280625,61.03325 L29.550625,61.03325 L29.550625,57.41575 C29.550625,56.11075 29.609375,55.217 29.730625,54.73325 C29.924375,53.9845 30.325625,53.35575 30.931875,52.84825 C31.539375,52.34075 32.226875,52.087 32.995625,52.087 C33.665625,52.087 34.206875,52.252 34.621875,52.58075 C35.035625,52.9095 35.320625,53.402 35.478125,54.0545 C35.569375,54.4345 35.614375,55.19325 35.614375,56.32825 L35.614375,61.03325 L36.883125,61.03325 L36.883125,55.957 C36.883125,54.6095 36.746875,53.6195 36.475625,52.98825 C36.203125,52.35825 35.781875,51.8545 35.210625,51.4795 C34.640625,51.1045 33.985625,50.917 33.248125,50.917 C32.528125,50.917 31.861875,51.08575 31.244375,51.42075 C30.629375,51.75575 30.064375,52.262 29.550625,52.93825 L29.550625,47.3645 L28.280625,47.3645 L28.280625,61.03325 Z M46.575625,59.16075 C46.241875,59.4495 45.838125,59.68075 45.363125,59.85575 C44.888125,60.03075 44.401875,60.11825 43.896875,60.11825 C42.856875,60.11825 41.983125,59.752 41.275625,59.0195 C40.566875,58.287 40.200625,57.347 40.176875,56.202 L49.050625,56.202 C49.039375,54.8545 48.675625,53.73075 47.961875,52.8295 C46.958125,51.5545 45.615625,50.917 43.933125,50.917 C42.300625,50.917 40.998125,51.5395 40.024375,52.7845 C39.255625,53.76325 38.871875,54.87825 38.871875,56.1295 C38.871875,57.4595 39.325625,58.65075 40.233125,59.70575 C41.139375,60.7595 42.398125,61.287 44.006875,61.287 C44.731875,61.287 45.383125,61.177 45.958125,60.95575 C46.533125,60.73575 47.050625,60.4145 47.509375,59.99075 C47.968125,59.56825 48.374375,59.012 48.724375,58.32325 L47.654375,57.762 C47.268125,58.40575 46.906875,58.872 46.575625,59.16075 L46.575625,59.16075 Z M40.303125,55.1045 C40.563125,54.19825 40.948125,53.51825 41.456875,53.06575 C42.153125,52.44325 42.984375,52.132 43.951875,52.132 C44.539375,52.132 45.099375,52.25575 45.631875,52.50325 C46.164375,52.752 46.590625,53.07825 46.914375,53.482 C47.239375,53.88825 47.485625,54.42825 47.654375,55.1045 L40.303125,55.1045 Z M50.868125,61.03325 L52.164375,61.03325 L52.164375,57.69825 C52.164375,55.987 52.243125,54.85075 52.399375,54.2895 C52.605625,53.55825 52.904375,53.01825 53.298125,52.672 C53.689375,52.3245 54.096875,52.1495 54.520625,52.1495 C54.703125,52.1495 54.925625,52.207 55.191875,52.322 L55.854375,51.25325 C55.454375,51.0295 55.079375,50.917 54.729375,50.917 C54.264375,50.917 53.816875,51.05825 53.388125,51.3395 C52.958125,51.6195 52.551875,52.0445 52.164375,52.612 L52.164375,51.17075 L50.868125,51.17075 L50.868125,61.03325 Z" id="Fill-14" fill="#FFFFFF" mask="url(#mask-2)"></path>
                            <polygon id="Fill-15" fill="#FFFFFF" mask="url(#mask-2)" points="45.1575 14.23875 58.6875 14.23875 58.6875 0 45.1575 0"></polygon>
                            <polygon id="Fill-16" fill="#FFFFFF" mask="url(#mask-2)" points="69.23 14.23875 82.76125 14.23875 82.76125 0 69.23 0"></polygon>
                            <polygon id="Fill-17" fill="#FFFFFF" mask="url(#mask-2)" points="45.1575 38.03875 58.6875 38.03875 58.6875 23.585 45.1575 23.585"></polygon>
                            <polygon id="Fill-18" fill="#FFFFFF" mask="url(#mask-2)" points="69.23 38.03875 82.76125 38.03875 82.76125 23.585 69.23 23.585"></polygon>
                            <polygon id="Fill-19" fill="#FFFFFF" mask="url(#mask-2)" points="24.074125 0 24.074125 14.2375 10.542875 14.2375 10.542875 0 -0.000875 0 -0.000875 38.03875 10.542875 38.03875 10.542875 23.58375 24.074125 23.58375 24.074125 38.03875 34.616625 38.03875 34.616625 0"></polygon>
                            <polygon id="Fill-20" fill="#FFFFFF" mask="url(#mask-2)" points="76.293375 69.356 76.293375 73.531 72.118375 73.531 72.118375 75.826 76.293375 75.826 76.293375 79.99975 78.588375 79.99975 78.588375 75.826 82.762125 75.826 82.762125 73.531 78.588375 73.531 78.588375 69.356"></polygon>
                        </g>
                    </g>
                </g>
            </g>
        </g>
    </g>
</svg>